<svg xmlns="http://www.w3.org/2000/svg" width="46" height="26" viewBox="0 0 46 26">
  <g id="그룹_5074" data-name="그룹 5074" transform="translate(-155.068 -119.501)">
    <g id="그룹_5073" data-name="그룹 5073" transform="translate(155.068 119.501)">
      <path id="패스_265" data-name="패스 265" d="M199.778,123.136c0-.053.073-.006.086,0,.009.052-.039.047-.022.108C199.759,123.226,199.816,123.169,199.778,123.136Z" transform="translate(-192.384 -122.514)" fill="#878787" fill-rule="evenodd"/>
      <path id="패스_266" data-name="패스 266" d="M204.437,146.488h.065c.008.036-.017.041-.043.043.023.02.007.079.064.064C204.49,146.69,204.421,146.57,204.437,146.488Z" transform="translate(-196.27 -142.025)" fill="#878787" fill-rule="evenodd"/>
      <path id="패스_267" data-name="패스 267" d="M205.744,149.537c0,.021-.026.017-.043.022-.018.061.03.056.021.107-.047,0-.068.018-.064.064C205.609,149.678,205.673,149.471,205.744,149.537Z" transform="translate(-197.277 -144.559)" fill="#878787" fill-rule="evenodd"/>
      <path id="패스_268" data-name="패스 268" d="M281.236,190.725c0,.025,0,.038.021.043-.009.048-.114.017-.129,0C281.132,190.721,281.183,190.722,281.236,190.725Z" transform="translate(-260.281 -179.215)" fill="#878787" fill-rule="evenodd"/>
      <path id="패스_269" data-name="패스 269" d="M366.116,192.677h.043c0,.049-.1.094-.043.129C366.025,192.871,366.074,192.714,366.116,192.677Z" transform="translate(-331.169 -180.853)" fill="#878787" fill-rule="evenodd"/>
      <path id="패스_270" data-name="패스 270" d="M276.718,193.318a.046.046,0,1,1,0,.086Z" transform="translate(-256.599 -181.388)" fill="#878787" fill-rule="evenodd"/>
      <path id="패스_271" data-name="패스 271" d="M275.83,193.976h.064q.015.1-.086.086C275.806,194.023,275.835,194.016,275.83,193.976Z" transform="translate(-255.84 -181.941)" fill="#878787" fill-rule="evenodd"/>
      <path id="패스_272" data-name="패스 272" d="M270.468,197.718c-.04.032-.032.111-.107.107C270.391,197.784,270.373,197.694,270.468,197.718Z" transform="translate(-251.294 -185.075)" fill="#878787" fill-rule="evenodd"/>
      <path id="패스_273" data-name="패스 273" d="M265.82,200.808c.007-.057.056-.072.107-.086C265.923,200.782,265.89,200.813,265.82,200.808Z" transform="translate(-247.504 -187.597)" fill="#878787" fill-rule="evenodd"/>
      <path id="패스_274" data-name="패스 274" d="M277.126,202.389c.064-.022.038.048.043.086h-.086C277.057,202.406,277.153,202.459,277.126,202.389Z" transform="translate(-256.9 -188.992)" fill="#878787" fill-rule="evenodd"/>
      <path id="패스_275" data-name="패스 275" d="M421.492,250.407c-.04.041.013.039,0,.107-.053,0-.066-.034-.107-.043C421.4,250.434,421.425,250.4,421.492,250.407Z" transform="translate(-377.341 -229.364)" fill="#878787" fill-rule="evenodd"/>
      <path id="패스_276" data-name="패스 276" d="M318.171,251.324c.012.065.022.115.107.107-.007.028-.038.034-.043.064-.079-.007-.111-.06-.129-.129.018,0,.02.008.021.021A.151.151,0,0,0,318.171,251.324Z" transform="translate(-291.143 -230.13)" fill="#878787" fill-rule="evenodd"/>
      <path id="패스_277" data-name="패스 277" d="M320.571,251.946c-.061-.03-.127.03-.129-.086.051.052.04-.032.108-.021A.14.14,0,0,1,320.571,251.946Z" transform="translate(-293.092 -230.559)" fill="#878787" fill-rule="evenodd"/>
      <path id="패스_278" data-name="패스 278" d="M317.329,252.621a.969.969,0,0,0,.193.021c-.031.081.059.041.043.107-.066-.015-.063.037-.129.022C317.429,252.692,317.34,252.7,317.329,252.621Z" transform="translate(-290.494 -231.213)" fill="#878787" fill-rule="evenodd"/>
      <path id="패스_279" data-name="패스 279" d="M426.315,253.269c.045.047.069-.019.107.021-.028.056-.044.068-.107.043Z" transform="translate(-381.455 -231.754)" fill="#878787" fill-rule="evenodd"/>
      <path id="패스_280" data-name="패스 280" d="M390.455,268.451c-.011.067.047.084,0,.129C390.389,268.552,390.359,268.461,390.455,268.451Z" transform="translate(-351.475 -244.425)" fill="#878787" fill-rule="evenodd"/>
      <path id="패스_281" data-name="패스 281" d="M400.377,271.672c.064-.022.038.048.043.086h-.064C400.346,271.713,400.37,271.7,400.377,271.672Z" transform="translate(-359.787 -247.11)" fill="#878787" fill-rule="evenodd"/>
      <path id="패스_282" data-name="패스 282" d="M163.106,123.621c.037-.039.084.007.086.064-.048.012-.031-.041-.064-.043a2.69,2.69,0,0,0,.129.6c.037.008.04-.017.043-.043.058.02-.03.067,0,.129.071-.1-.01.1.107.108.008-.036-.017-.041-.043-.043-.015-.066.037-.063.022-.129.076.022-.019.095.064.086.009.052-.039.046-.022.107-.025,0-.038,0-.043.021a.059.059,0,0,1-.043-.064c-.075.049.05.076.021.15.04,0,.013-.073.043-.086.028.082-.108.241.043.3,0,.09-.033,0-.064,0,.009.041.061.039.043.107.045-.148.123-.1.043-.236a.1.1,0,0,1,.065.129c.075-.056.056-.07.086.043-.211-.016-.188.184-.15.279.024-.02.007-.04.022-.107.025,0,.018.039.021.064a.1.1,0,0,1,.064-.021c.021.078-.1.018-.086.086.061.1.087.242.214.279a.482.482,0,0,0,.15.644c-.118.143.17.269.043.429.039.161.085.316.236.365-.006.013-.053.083,0,.086,0,.031-.064.007-.064.043s.022.012.022,0c.087.15.037.164.172.3,0,.035-.072.111-.021.129-.014.064-.046-.021-.086,0,.2.086.064.278.258.365-.007.113-.052.263.107.279.012.047-.041.03-.043.064a1.8,1.8,0,0,1,.236.236c.028-.129.044.029.107.086.283-.025.2.167.429.258.078-.078.176-.02.215-.086.039.033.108.036.086.129.079-.007.119-.053.193-.065-.016.048.079.088.086.043.045.012.045.034.021.064.114.1.408-.049.429.193.114-.007.128.087.214.108.008.036-.017.04-.043.043.015.042.057.057.107.064-.053.052.016.093,0,.171.12-.054.14.1.193.043.033.022.084.155.193.107-.034.118-.081.15-.043.258-.068.018-.228.148-.129.193a1.483,1.483,0,0,0-.236.172c.036.021.055.059.043.129-.243.022-.444,0-.687.043-.079.151-.311.081-.515.172.034.056-.042.156.064.172-.119.07.093.15-.043.171,0,.025.039.018.064.022-.051.047.073.139-.021.171.122.051.007.218.15.258-.016.038-.039,0-.064,0,.086.106.051.2.15.236a.228.228,0,0,0,.129.322c0,.133.049.208-.021.3-.013.075.1.07.043.129a.36.36,0,0,0,.086-.064.586.586,0,0,0,.172.343,2.393,2.393,0,0,0,0,.322c.072.022.033-.067.043-.107.051-.008-.012.1.064.065-.041.048-.049.064.021.085-.077.036-.035.158-.064.193a.094.094,0,0,0,.086.043c.023.055-.092.075-.022.107-.012.048-.033-.026-.064.021a.181.181,0,0,0,.086.172c0,.022-.093.043-.022.064a.423.423,0,0,1-.472.236c.009.041.061.039.043.107-.159.058-.092.193-.172.322-.205,0-.684,0-.558.3a.207.207,0,0,1-.257-.021c-.071.107-.141-.077-.258,0-.06-.118-.3.05-.343-.15-.054.066-.164-.067-.193-.021-.009-.049-.081-.146-.129-.086-.009-.084-.254-.192-.215-.322-.079-.028-.15-.105-.236-.064.018-.068-.034-.066-.043-.107-.01-.067.058-.057.064-.107-.122-.036-.048.123-.15.107,0-.089.064-.122.129-.15-.009-.041-.046-.054-.043-.107.088-.007-.016-.083.086-.086a1.4,1.4,0,0,0-.279-.236c-.019-.079.107-.207,0-.236-.006-.035.02-.037.021-.064-.16-.143.027-.388-.193-.472.025-.115-.036-.1.022-.214-.022.014-.022.049-.064.043-.015-.058.044-.042.064-.064-.011-.1-.159.049-.15-.086.132.027-.009-.15.107-.065-.021-.042-.106-.066-.043-.128-.072,0-.073.07-.15.064,0-.021-.026-.017-.043-.021,0-.1.143-.058.172-.129a.3.3,0,0,0-.15-.215c-.044-.025.032-.109.043-.15-.071-.04-.068.069-.107-.086.017,0,.021.022.043.021.028-.1-.071-.072-.043-.172-.021,0-.017.026-.021.043a1.016,1.016,0,0,0-.236-.365c-.064.042-.132-.032-.15.043l-.064-.064c-.278.168-.469.019-.751.128-.03.008,0,.038.021.043-.053-.006-.167-.031-.257-.043-.04,0-.013.073-.043.086-.028-.028-.065-.013-.086.022a.123.123,0,0,1-.064-.129c-.1.094-.2-.058-.236.064-.095-.058-.235.02-.343.022-.031,0-.064-.043-.064-.043-.127.017-.212.095-.343.086a1.467,1.467,0,0,0-.665.064c-.177-.049-.4.094-.622.021-.039,0-.045.026-.086.022.04.041,0,.054,0,.107-.1-.039-.2.061-.215-.064-.047,0-.068.018-.064.064a.059.059,0,0,1-.043-.064c-.308.056-.581.2-.493.579h-.064c.072.13-.062.232-.086.365-.008.042.028.085.021.129-.022.143-.044.117-.107.215s-.025.171-.021.343c-.054,0-.067.033-.086.064.1.136-.119.286.043.365-.008.106-.209.25-.021.3-.021.035-.057.049-.086.022-.018.068.008.18-.064.193.062.06.068.176.107.258-.054,0-.067.033-.086.064.071.012.037.169-.021.107.016.183-.021.155,0,.322-.043,0-.027.059-.086.043.033.151-.051.2-.15.279.1.141-.115.2-.236.193.026-.069-.069-.017-.043-.086-.041.105,0,.133-.021.3-.147.033-.111-.118-.215-.129,0,.14-.317.134-.493.171a.08.08,0,0,1,0-.107c-.046.039-.076.061-.065-.043a.231.231,0,0,1-.279-.258c0-.025-.039-.018-.064-.022-.018-.06.03-.056.021-.107-.237-.187.006-.519-.193-.708.053-.052-.01-.088.064-.107a.812.812,0,0,1-.043-.15c.046.01.041-.031.043-.065.086.051.058-.048.129-.064-.007-.029-.054-.018-.086-.021.055-.055.1-.069.064-.172.114-.022.091-.18.172-.236-.03-.013,0-.083-.043-.086a.8.8,0,0,1,.172-.129c.055-.136-.024-.277.086-.344-.092-.1-.017-.174.064-.258-.059-.072.112-.192.065-.343.017,0,.021.022.043.022,0-.03,0-.061.022-.064-.024-.008-.09-.094,0-.086,0-.07-.123-.068-.064-.129.022.092.076-.111.086-.15-.029.115-.052-.075,0-.129.063.018-.028.054,0,.107.077-.1.045-.244.043-.365-.088-.024-.055.074-.107.086-.057-.022-.052-.105-.107-.129-.03.011,0,.136.064.129,0,.055-.037-.029-.085,0,.018-.068-.034-.066-.043-.107-.032.009.008.027,0,.064-.032-.019-.068-.032-.064-.086-.107.057-.259-.025-.279.086-.037-.029-.084-.069-.086.022-.074-.041-.166-.063-.193-.15-.233.054-.209-.148-.322-.215.081-.062.005-.106.064-.129-.019-.075-.085-.1-.129-.15,0-.025.039-.018.064-.022.006-.057-.03-.07-.086-.064.005-.038.037-.049.086-.043-.038-.028-.079-.136.021-.129-.018-.063-.069.013-.107,0a.283.283,0,0,1,.107-.365c-.128-.057.022-.313.086-.3a.7.7,0,0,1,.15-.343c.065-.016.078.022.129.022.025-.007.074-.094.022-.107.091-.116.256,0,.322-.15.107.05.177.1.279,0,.05.084.3.052.408.107-.088-.149.249-.028.279-.129a.43.43,0,0,0,.129.064c.046-.061.027-.187.107-.214a.37.37,0,0,1,0-.214h.086c-.06-.145.025-.279-.021-.386a.123.123,0,0,1,.086-.021c0-.062-.005-.109-.043-.129.05.016.046-.078.043-.171a.14.14,0,0,1,.107-.022c-.052-.1.058-.14-.022-.236.143-.058.032-.3.15-.343-.017-.086-.043-.225.086-.258-.023-.071.016-.106.043-.172-.054.033-.041-.14.043-.15a.074.074,0,0,1,.043-.129c-.126-.108.12-.315.021-.386a15.623,15.623,0,0,1,.515-1.545c-.006-.065-.066-.077-.043-.172.078.021.018-.1.086-.086-.064-.041-.015-.062-.043-.129h.064c-.016-.221.154-.3.107-.493.042,0,.027-.059.086-.043-.048-.149.1-.209.064-.408a.352.352,0,0,0,.107-.365.12.12,0,0,1,.086-.022c-.027-.054.011-.067-.022-.086.133-.123.224-.164.129-.386.066.06.057-.086.129-.086-.086,0-.014-.135.086-.129-.029-.109-.038-.285.107-.279.01-.088-.077-.08-.086-.15.123-.077.18-.22.3-.3a.329.329,0,0,1-.086-.15c.1.033.086-.086.15-.021.036-.315-.358-.386-.386-.709h-.086c-.061-.178.169-.333.3-.451.108.039.166-.114.279-.021.042-.016-.058-.068-.021-.15.11.046.02-.109.107-.086-.009-.041-.061-.039-.043-.107a.059.059,0,0,1,.043.064c.039-.028-.027-.116.021-.172.05.006.049.057.021.086.057,0,.047-.068.107-.065,0,.039-.026.045-.022.086.09.018.1-.042.172-.043.01.083.083,0,.129.065a.152.152,0,0,0,.129-.086c.046-.051,0,.052-.022.064.037,0,.056-.037.064,0,.025,0,.018-.039.021-.064.11.084.061-.155.172-.086.065-.2.366-.066.429-.236.061.058.126,0,.129-.064.053.1.277.024.343.107.049-.037.137-.035.15-.107.059-.016.043.043.086.043,0-.039-.026-.045-.021-.086a.249.249,0,0,1,.236.086c.024-.02.007-.04.022-.107.038.107.146.007.172.043.063.018-.028.054,0,.107.075-.068.043.014.15-.022-.005.063.048.066.043.129.04,0,.013-.073.043-.086.045.044.048.119.107.193-.028-.007-.034-.038-.064-.043,0,.1.063.138.064.236-.009-.073.058-.086.086-.172,0,.213-.063.219.043.472.023-.005.015-.043.043-.043.04-.067-.019.124-.064.043a.394.394,0,0,1,.043.343c-.022-.014-.022-.049-.064-.043.08.059.02.149.107.172-.049.142.054.058-.021.15.019.063.032-.05.086-.021-.026.089.034.207-.043.172-.022.064.048.038.086.043-.012.044-.034.045-.064.021a.246.246,0,0,1-.043.215c.077-.088.149-.007.043,0,.018.1.033.17-.022.236.133.02.017.27.129.343-.068.022-.007.122,0,.193-.061.018-.056-.03-.107-.021.075.064.008.11.021.236.094,0-.025-.1.064-.086-.018.068.019.081.043.107-.053.06,0,.087.022.172-.055-.019-.012.075-.086.086.087.13.125.082.15.236a.151.151,0,0,1-.043-.064c-.017,0-.021.021-.043.021.076.074-.007.307.129.322l-.011.032.032.011c-.034.056-.024.066.043.043.081.174-.068.127.107.257l-.011.1Zm-2.9.9c.081.172-.17.361-.193.622-.02-.118,0,.055-.064.021.039.059-.016.165-.086.107a.291.291,0,0,1,0,.151c-.028,0-.02-.038-.043-.043-.006.038.06.107,0,.129.033-.053-.073-.063-.064-.021a.058.058,0,0,1,.043.064c-.083.039-.114.032-.086.15a.935.935,0,0,0-.129.107c.024,0,.033.024.043.043-.067-.01-.069.046-.064.107-.031-.008-.036-.026-.064,0,.058.26-.214.323-.107.451-.041,0-.047-.024-.086-.021v.15c-.08-.016-.072.056-.107.086.017,0,.042,0,.043.022-.025,0-.061,0-.064.021.06.065.023.187-.021.065a.138.138,0,0,0,.021.107c-.11.017-.069.034-.021.086-.041.04-.054,0-.108,0,.029.076.035.042.043.129-.181.149-.121.4-.3.472.018.114-.044.191.021.236a.229.229,0,0,0-.064.236c-.029.007-.041.03-.086.021.012.158-.067.225-.043.365-.084.017-.063.039-.086.086-.061.018-.056-.03-.107-.021v.043c-.013,0-.026,0-.022.021.04.021.072-.064.086,0-.005.066-.077.066-.107.107.029.053.065-.038.086.022,0,.06-.037.091-.107.086.018.069-.034.066-.043.107.013.037.1,0,.107.043a.119.119,0,0,0-.086.021,1.148,1.148,0,0,1,.086.3c.042.006.042-.029.064-.043,0,.059.036.043,0,.086.151.008.292.005.344-.086.066.059.169-.044.193.064a1.607,1.607,0,0,1,.837-.193c.034-.082.034-.025,0-.107.113-.02.169.131.236.086a.059.059,0,0,1-.043-.064c.022,0,.025-.017.043-.021.144.091.381.031.579.086,0-.047.017-.068.064-.064.389.1.671-.134,1.095-.086.01-.069.082-.076.085-.15-.025,0-.061,0-.064-.021a.758.758,0,0,0-.043-.515c-.042-.007-.042.029-.064.043A.3.3,0,0,1,161.8,128c-.1-.015-.069-.071-.107-.172a.059.059,0,0,1-.043.065.183.183,0,0,1,.021-.129c-.1-.014-.03-.079-.107-.129.017,0,.042,0,.043-.022-.029-.052-.043-.013-.064-.042.009-.165-.262-.508-.107-.558-.065-.029-.05-.2-.107-.064.048-.167-.069-.246-.085-.365.024,0,.033.031.043,0-.067-.039-.062-.08-.021-.15-.125-.073-.135-.231-.107-.386-.081.047-.047-.044-.107,0,.012-.07-.015-.1-.022-.15.049-.03.081.055.086,0-.045-.074-.081.01-.107-.022a1.7,1.7,0,0,0-.129-.622s.042,0,.043,0a1.555,1.555,0,0,0-.236-.537c0-.034.055-.017.043-.064-.092.032-.062-.042-.064-.15-.037-.008-.055.032-.064,0,0-.15.013-.141-.021-.236-.041.067-.015.129-.129.086.043.14-.162.057-.171.086C160.331,124.482,160.211,124.516,160.21,124.522Z" transform="translate(-155.068 -119.501)" fill="#878787" fill-rule="evenodd"/>
      <path id="패스_283" data-name="패스 283" d="M357.755,131.379a.059.059,0,0,0,.043-.064c.037.019.059.079,0,.086.009.032.028-.008.065,0,.012.045.053.061.043.129-.066-.048-.036.152.043.129-.066.05-.017.021.022.064-.016.051-.052.037-.086.107a.184.184,0,0,1,.086.15c-.12-.023.053.187-.043.215.068.051.081.175-.021.193,0,.06.037.091.107.085-.063.139.1.243,0,.343.061,0,.123.135.172.15-.07.035.058.135-.043.129.079.054-.024.157.064.193-.048.041-.124.134-.172.107.046.082-.027.115-.043.193,0,.047.018.068.065.064,0,.133-.1.291.021.365-.087.014-.019.083-.086.086.068.073.006.234.129.236a2.318,2.318,0,0,0-.021.622h-.086c.02.049,0,.069.021.15-.1-.021-.029.128-.129.107.029.035.076.053.064.129-.038.019-.063.068-.107.021.119.061-.02.124.064.193-.007.079-.06.112-.129.129.036.03.094-.005.108.086h-.086c0,.038.026.045.022.086.04.021.072-.064.086,0-.02-.023-.065.108-.129.129.009.057.081.072-.021.086.042.081-.058.156.021.236-.067-.01-.057.074-.107.022.016.065-.037.063-.022.129.1-.109-.017.139.022.258-.014-.051-.166.122-.065.172-.012.044-.033.045-.064.021.012.038.011.089.043.107-.067.056-.049.085-.043.236a.1.1,0,0,0-.064-.021c.019.038.06.055.043.128-.025,0-.038,0-.043.022-.045-.006.031-.057-.021-.086a.177.177,0,0,0,0,.214c-.028-.026-.034-.008-.064,0,.083.028-.05.219-.107.172-.032.139.047.318-.107.365.009.048.114,0,.129.043.019.069-.056.044-.064.086-.005-.044-.03-.05-.107-.022.028.042-.069.171.021.193-.015.042-.057.057-.107.064.015.147-.113.183-.021.236-.043-.007-.067,0-.064.043-.035.006-.037-.02-.065-.021-.053.03-.038.074-.021.129-.036-.012-.139.061-.043.086-.005.073-.046.111-.129.107-.037.055.024.075-.021.107.031.041.081.062.086.129-.035.006-.037-.02-.064-.021.01.019.019.038.043.043-.012.048-.033-.026-.064.022.062.132-.041.155-.065.258-.03,0-.061,0-.064-.022-.045.005-.006.094-.043.107.017,0,.021-.021.043-.021.051.012-.044.053-.086.043a.1.1,0,0,1,.021.064c-.106,0-.083.132-.193.129.135.13-.117.294-.021.451-.092-.007-.058.078-.043.128-.049-.006-.081.005-.086.043-.021,0-.017-.026-.021-.043-.089.032.036.148-.086.193.032.046.061-.023.086.043-.051.032-.079.033-.043.107-.076-.081-.081.117-.15.043-.055.005.03.037,0,.086-.035.006-.037-.02-.065-.022.056.114-.058-.01-.043.129.037-.1.113.053,0,.043.085.049-.03.083.021.129,0,.018-.008.02-.021.021s-.02.008-.021.021c-.023-.005-.015-.043-.043-.043-.037.031-.006.071.021.129-.107-.069-.1.04-.129.129-.045.009-.057-.015-.086-.022-.079.065.085.113-.043.129,0,.055.039.075.064.107-.049.088-.02-.077-.086-.043a.214.214,0,0,1-.193.193c.03.028.021.093.021.15-.094-.058-.118.112-.215.064.06.218-.212.269-.236.472-.119-.114-.4.065-.451-.107a.4.4,0,0,1-.451-.193c.018,0,.022.021.043.021,0-.064-.056-.073-.065-.129a.119.119,0,0,1-.172-.086c.1-.1-.122-.126-.15-.257a.228.228,0,0,0,.022-.236c.105.012.058-.142.043-.193h.064c-.05-.292-.054-.5.215-.622.022-.058.014-.156-.064-.172a.207.207,0,0,1,.129-.193c-.087-.041.013-.1.022-.171a.1.1,0,0,0,.064.021c-.043-.054-.018-.176.064-.172.006-.049-.005-.081-.043-.086.033,0,.073-.086.129-.129-.009-.032-.027.009-.064,0,.043-.08.073-.087.021-.171.109-.049.07-.184.129-.279.031-.05.119-.083.129-.107s-.057-.032-.065-.021.118-.045.107-.086c-.1-.083.011-.282.107-.322,0-.128.1-.368.129-.279.074,0,.046-.151,0-.129a.151.151,0,0,1,.107-.107c-.068-.1-.02-.329.129-.343.06-.033.069-.264.193-.3.057-.089-.029-.225.107-.258-.064-.041-.015-.061-.043-.128.086,0,.057-.055.043-.107h.086c.136-.21.086-.367.257-.558-.052-.13-.062-.119-.021-.236.292-.044.081-.446.257-.623-.022-.058-.04-.182.064-.171.017-.048-.107-.077,0-.086a.2.2,0,0,1-.021-.172c.085.052-.024-.032.065-.021-.065-.075.017-.142.043-.193-.107-.027.055-.108-.043-.107,0-.037.037-.056,0-.064,0-.025.039-.018.064-.022.027-.3.023-.313.107-.429a.427.427,0,0,1-.086-.172c.084-.03.054-.05.043-.129.131-.007.031-.138.107-.172.034.008-.019.038.021.043.036-.126.056-.048.086-.193.148.02.036-.209.172-.279-.112-.093.055-.234.021-.3.088-.029.01-.076.107-.043a.1.1,0,0,1-.021-.064.123.123,0,0,1-.086.021c.054-.065.018-.086.022-.193-.109.075-.048-.182.021-.172,0-.074-.088-.055-.086-.129.155,0,.033-.16.172-.15-.022-.036-.091-.023-.129-.043.041-.141.034-.22.129-.3-.021-.081.033-.153.022-.214,0-.025-.039-.018-.065-.022.029-.027.041-.113-.043-.086v-.086c.031-.024.052-.023.064.021.023-.005.015-.042.043-.043-.15-.033.007-.169-.172-.193.019-.037.048-.083.086-.043a.59.59,0,0,1,.923-.172C357.4,131.239,357.779,131.27,357.755,131.379Z" transform="translate(-320.814 -129.255)" fill="#878787" fill-rule="evenodd"/>
      <path id="패스_284" data-name="패스 284" d="M236.754,154.3c-.014-.022-.049-.022-.043-.065.1-.02.018-.086.086-.129a.091.091,0,0,0,.15-.086c.172-.029.164-.237.386-.214.079-.216.365-.119.408-.343.157.007.286-.015.322-.129.132.034.193-.042.257-.129.163-.029.281,0,.365-.15.015.042.12-.005.129.043-.034-.069.128,0,.107-.107.013.037.065.035.086.064.06-.021-.031-.057.021-.086.086.02.1.015.15-.043.09-.018.085.058.129.086.05-.006.05-.058,0-.064.1.01.22-.089.279-.021a1.188,1.188,0,0,1,.751-.258c.093.014.068-.09.15-.086-.07.105.065.289.15.322.006.035-.02.037-.022.064a3.519,3.519,0,0,1,.6.365c-.065.093.017.074,0,.215a2.165,2.165,0,0,0,.429.064c.03,0,.056-.035.086-.021a.338.338,0,0,1,.043.515c-.005.063.048.066.043.129-.044-.012-.051.041-.021.043-.008.03-.038,0-.043-.021-.08.154-.266.134-.279.386-.091-.118-.046.211-.107.279-.044.038-.042-.016-.086.022a1.528,1.528,0,0,0-.021.343c-.062-.064-.039.052-.043.107-.045-.009-.057.015-.086.021.054.2-.145.268-.107.472-.059,0-.043.036-.086,0,.043.222-.164.291-.086.536-.085.013-.087.231-.043.258-.074.1-.179.092-.15.322a.119.119,0,0,1-.086.021.14.14,0,0,1,.021.107c-.121-.075-.029.14-.107.064-.032.306-.109.279-.107.451.005.038.037.049.086.043-.016-.069.123-.1.214-.129a.022.022,0,0,0-.043,0c.034-.135.369.022.472.021.106-.045.128.036.214,0v.108a.266.266,0,0,1,.322.15c.028-.03.093-.021.15-.021.034.095.1.068.129.193-.287.109-.582.074-.73.343-.125-.065-.323.1-.429.193-.088-.024-.181-.036-.172.086-.152-.009-.169.117-.343.086a.058.058,0,0,0,.043.064c-.014.022-.049.022-.043.064-.123-.028-.206.026-.236-.086-.038-.007-.038.12.021.086a1.182,1.182,0,0,0-.279.257c-.042.067-.032.272-.15.257.076.08-.087.222,0,.258a1.955,1.955,0,0,0-.386,1.03.138.138,0,0,1-.107.021c.047.112-.1.2-.043.3-.239.2-.107.6-.257.772.014.035.055.217-.022.15.067.089-.03.083.043.15-.031.063-.086-.025-.064-.085-.072.048-.067.112-.043.214-.038-.031-.049-.02-.043.043a.121.121,0,0,0-.086-.022c.065.068,0,.131.064.193-.009.053-.083,0-.064-.043-.058.025,0,.112,0,.15h-.107c.078.031.008.123-.064.129-.006.063.048.066.043.129-.183.125-.165.377-.3.536.077.176-.133.215-.129.386a.5.5,0,0,0-.236.472c-.136.082-.038.255-.257.3a.8.8,0,0,1-.386.665c-.021,0-.017-.026-.021-.043-.026.026-.112.1-.086.107-.007.03-.038,0-.043-.022-.039.094-.108.024-.107.151-.057,0-.126.012-.129-.043-.117.163-.408.049-.472.236-.261.072-.426-.014-.6.129-.058.016-.043-.043-.086-.043-.117.07-.349,0-.429.15-.079-.03-.115.031-.15-.043a1.464,1.464,0,0,1-.751.043c-.025,0-.012.024,0,.021-.3.062-.685-.006-.9.172a6.824,6.824,0,0,1-.815-.064.059.059,0,0,0-.043.064c-.165-.049-.3.039-.386-.021-.215.182-.356-.057-.622.021-.025,0-.018.039-.021.064-.047.014-.068-.061-.064.022a1.92,1.92,0,0,0-.386-.043c-.009-.045.015-.057.021-.086-.025-.025-.111.055-.15,0-.04,0-.013.073-.043.086-.065,0-.141.013-.129-.064a.349.349,0,0,1-.343-.065c-.017.055-.131.012-.129.086-.239-.063-.5-.246-.773-.3,0-.16-.058-.249.022-.343a.154.154,0,0,0-.064-.043c-.03-.062.058-.109,0-.128.032-.09.2-.046.236-.129-.1-.006.04-.108-.021-.193.051.053.035-.056.129-.021-.08-.071.015-.043.022-.129-.013.037-.065.036-.086.065-.006-.05.066-.086.064-.215.06,0,.221-.077.236.022.029-.027.042-.065.086-.022.026-.069-.069-.016-.043-.086.109-.006.216-.012.193-.15.142.018.081-.051.215-.086a.119.119,0,0,1-.022-.086.15.15,0,0,0,.107-.107c.045.026.084.059.129.086.009-.052-.039-.047-.022-.108a.836.836,0,0,0,.6-.343c.054-.01.192-.065.215-.171a.815.815,0,0,0,.343-.172c.076-.05.145-.162.236-.215.04-.023.151.015.108-.107.017,0,.021.022.043.022.2-.211.444-.24.6-.493-.032-.045.052.028-.021.064a2.815,2.815,0,0,0,.494-.386c.047,0,.068.018.064.064.085-.023-.005-.065,0-.129.028-.029.093-.021.15-.022.023-.005.015-.042.043-.043-.014-.022-.049-.022-.043-.064.066-.024.133.019.172-.065a.1.1,0,0,1,.043.086c.028-.008.034-.038.064-.043-.108-.036.061-.09-.021-.15.034-.069.08.075.129,0,0-.025-.039-.018-.064-.021.019-.032.032-.068.086-.065,0,.038.026.045.021.086a1.323,1.323,0,0,0,.258-.236c.03.087.088-.052.043-.021.036-.024.137.016.086-.086.013.03.083,0,.086.043.031-.069.158-.043.129-.172.057.077.127.008.193-.021.016-.065-.037-.063-.022-.128.08.138.409-.144.343-.215.181,0,.341-.2.429-.3.021,0,.017.026.021.043.037-.036.14-.206.15-.129,0-.14.311-.09.258-.215.031-.005.133-.01.172-.064,0-.039-.026-.045-.021-.086.085,0-.007.033.043.064.132-.089.305-.138.386-.279a.892.892,0,0,0,.451-.279c-.009-.032-.027.009-.064,0,0-.025,0-.038-.022-.043.028-.086.044.006.107,0,.008-.029.065-.091.021-.171.04-.039.1-.058.129-.107.043.024-.036.106-.086.107,0,.038.026.045.021.086.16,0,.15-.164.3-.172.024-.1-.053-.1-.064-.171.047-.012.03.041.064.043s-.013-.084-.043-.086c.02-.024.04-.007.107-.022-.017.075.032.083.021.15-.031.047-.052-.027-.064.022.055.06.118-.052.172-.064-.036.057.051.045-.021.107.064-.058.159-.084.193-.172.023.005.015.043.043.043.086-.027-.006-.044,0-.107.13,0,.074-.184.193-.193,0-.021-.026-.017-.043-.021.075-.052.042-.1.15-.129-.022.05-.043.1-.107.107.03.027.013.1.043.129.093-.025.274-.106.172-.193a.589.589,0,0,1,.193-.172c.072.019,0,.048.043.086.146-.012.18-.134.322-.15-.051-.1-.074-.13,0-.214.031,0,.007.064.043.064,0-.07.14-.173.086-.3h.065c-.027-.118.1-.194.064-.322.059-.028.089-.069.064-.129.166,0,.075-.35.236-.429a.108.108,0,0,0-.064-.064.266.266,0,0,0,.043-.193.467.467,0,0,1,.15-.043c-.067-.074.066-.113,0-.172.072,0,.052-.1.15-.15-.061-.049-.02-.089-.064-.172.09-.011.015-.119.086-.065.021-.078-.1-.018-.086-.086-.043,0-.027.059-.086.043.027.075.063.04.107.065-.052.007-.194.047-.193.171-.36.115-.5.483-.794.6.023.088-.094.148-.065.172a.975.975,0,0,1-.279,0c0,.079-.184.2-.279.171-.011.11-.162.081-.172.193a2.265,2.265,0,0,0-.751.408.058.058,0,0,1-.064-.043c-.025,0-.018.039-.022.065-.069.019-.029-.071-.086-.065s.065.048,0,.086c-.129.007-.139,0-.15.086-.023-.005-.015-.043-.043-.043s-.074.062-.021.064a.888.888,0,0,1-.88.043c0-.034-.01-.082.022-.086-.025-.086-.073-.026-.129-.064.079-.124-.11-.141-.107-.257.09-.016-.042-.166-.043-.279.013-.03.082,0,.086-.043-.019-.015-.086-.02-.15-.043-.052-.2.031-.217-.086-.386.038.006.044-.02.022-.022.077-.023.1-.1.15-.15,0-.025-.039-.018-.064-.021-.016-.059.042-.043.043-.086-.17-.176.1-.262.086-.472.133.022.037-.072.15-.086-.047-.019-.062-.091.021-.086a.236.236,0,0,1,.129-.3c-.05-.056,0-.146,0-.214.06.018.165-.122.064-.172.065-.129.075-.308.258-.365a.272.272,0,0,1-.064-.15c.046-.047.153-.033.15-.128a.1.1,0,0,0,.065.021c.073-.018-.013-.11.086-.129-.063-.031-.041-.153-.021-.257.1.029.107-.084.172-.022.016-.066-.059-.041-.043-.107.083-.009.076-.023.129.021C236.6,154.388,236.731,154.416,236.754,154.3Zm3.3-.129c.008.1-.093.156-.236.107-.011.144-.119.058-.107.15-.289-.06-.78.014-.837.215-.052-.041-.09,0-.193,0,0,.041.024.047.021.086-.061.05-.106.08-.172.022-.062.089-.146.176-.236.129v.108c-.038-.04-.055.017-.129,0,.017.117-.153.047-.129.171-.084-.05-.159.171-.257.107-.036.043,0,.027,0,.086-.171.019-.258.185-.429.3-.027.069.069.016.043.086-.132-.039-.069.117-.171.107,0,.134-.02.112-.022.236-.092-.062-.182.156-.171.193,0-.028.059-.027.064,0-.105,0-.048.167-.129.193-.016.066.059.041.043.107-.04.021-.072-.064-.086,0,.058-.015.041.045.064.065.072,0,.073-.07.15-.065-.059.081.073.014.107,0a.14.14,0,0,1-.021.108c.107-.014.165-.068.171-.129a4.488,4.488,0,0,0,.773-.279c0,.022-.093.044-.021.064.048-.066.15-.079.193-.15.01.08.28-.107.193-.129a.193.193,0,0,0,.257-.171.218.218,0,0,0,.193-.129c0,.026.006.051.043.043.015-.106.153-.081.129-.172.029.009.133-.057.215-.064-.112-.033.029-.025.064-.043.074-.038.14-.226.258-.193-.024-.122.087-.132.15-.108,0-.126.213-.045.215-.171-.047,0-.068-.017-.065-.064.054,0,.067-.034.107-.043a.8.8,0,0,1,.064-.343c-.08.028-.085-.127-.043-.15.107.043.032-.139.107-.172-.112.011.041-.124-.021-.129C240.131,154.212,240.156,154.2,240.059,154.172Zm-2.425,6.631c-.088-.134-.223-.065-.322.043v-.086a1.016,1.016,0,0,0-.322.365c.025,0,.061,0,.064.021-.124-.027,0,.071-.064.086h-.043c.04-.042.007-.133-.021-.172-.005.055-.037-.029-.086,0-.036.1-.1.111-.193.108-.029.049.055.08,0,.086-.006-.019-.058-.094-.064-.043.017,0,.025.018.021.043-.152-.009-.17.116-.258.193a2.029,2.029,0,0,1-.257.15,2.388,2.388,0,0,1-.365.257c-.044.02-.181.007-.172.086.015-.083-.107-.014-.129,0,.047.045-.173.2-.279.15.027.084-.059.072-.086.043,0,.032.008.079-.021.086-.333.074-.505.365-.9.451.021.1-.063.095-.086.15-.156,0-.274.143-.408.236a5.312,5.312,0,0,1-.923.536c-.008.1-.085.13-.129.193,0-.026-.007-.051-.043-.043-.249.132-.4.472-.644.536-.046.068-.039.169-.15.215.056.057-.033.152-.043.215.054.054.084-.025.15-.022.032.032.039.09.086.107.006-.019.058-.094.064-.043a11.746,11.746,0,0,0,3.433-.086c-.051-.006.024-.058.043-.064.055.03.134.037.193.064.016-.094-.043.017-.043-.043.021-.029.072-.028.086-.064.02.023.079.007.065.064.157-.021.235-.123.343-.193-.045-.051.01-.1.086-.064.036-.162.2-.2.15-.343a.566.566,0,0,0,.15-.107c-.124.023.026-.117-.065-.108.052-.054.057-.02.15-.021-.042-.175.094-.228.021-.343a.139.139,0,0,1,.107-.021c-.025-.118.055-.131.107-.172-.02-.046.041-.2.086-.193.015-.066-.037-.063-.022-.129.059-.017.107-.058.043-.086.029-.034.05-.122.107-.064a.1.1,0,0,0-.043-.15c.1-.039.105-.167.215-.193-.081-.081.04-.177.107-.236.016-.066-.059-.041-.043-.107.088-.02.043-.172.15-.172-.008-.1.038-.122-.021-.172.074,0,.055-.1.129-.107,0-.127-.042-.195.065-.236-.047,0-.068-.018-.065-.064.126-.029.025-.155.15-.172.01-.113-.058.05-.064-.022s.076-.067.107-.107c-.1.038-.077-.114-.021-.107a.156.156,0,0,0,.043.064c-.009-.1-.026-.123.043-.171-.029-.052-.043-.014-.064-.043.039-.044.079-.006.043-.086.032,0,.079.008.086-.022-.064,0-.018-.071-.043-.15-.048.009-.068.046-.107.064.038.065.066-.059.086,0-.021.058-.1.059-.064.171C237.673,160.742,237.675,160.794,237.634,160.8Zm-.021-.107c-.024.031-.023.052.021.064v-.107h-.064C237.572,160.679,237.576,160.7,237.613,160.7Z" transform="translate(-217.151 -147.365)" fill="#878787" fill-rule="evenodd"/>
      <path id="패스_285" data-name="패스 285" d="M229.435,158.335c.062.012-.033.034-.021.065s.019.038.043.043c.036-.014.013-.049-.022-.043-.008-.042.1-.032.065.021.065-.027-.023-.074,0-.129.035-.006.037.02.064.022.014-.047-.061-.068.021-.065.017-.074-.032-.082-.021-.15.112-.054.294-.122.257-.257a.2.2,0,0,0,.236-.257c.024-.048.128-.015.107-.107.13,0,.214-.078.215-.258.066.028.061-.006.15,0-.053-.107.2-.028.15-.193a.21.21,0,0,0,.236-.129c.2.063.246-.213.386-.214.063-.005.074.04.107.064.067-.09.172-.142.193-.279.085.059.122.023.193-.022-.019.069.07.03.086.064.009-.158.205.005.3-.043,0,.049.11.193.15.193.063.187.135.365.343.408,0,.176-.052.309.129.408-.045.081.028.154-.022.214a.427.427,0,0,1,.129.214c.011.041-.032.149.086.193-.024.17-.035.126-.086.236.106-.056.023.124-.022.15-.007.093.1.25.043.343.085.065.132.254.022.3.006.044.057.043.086.064a1.166,1.166,0,0,0,.086.687c-.106.044.086.13-.021.193a.551.551,0,0,1,.043.515c.006.045.094.006.108.043,0,.16.05.206,0,.365.088-.078-.105.293.085.343-.006.044-.057.043-.085.065.11.082-.086.15-.086.257-.061-.052-.257.1-.494.021-.073-.024-.182-.185-.257-.215-.091-.035-.169-.121-.257-.107-.019-.137-.178-.164-.107-.279-.087-.046-.032-.116-.15-.107a.15.15,0,0,1,.064-.043c-.018-.083-.108-.092-.15-.15.037-.02.043-.087.086-.043a.616.616,0,0,1,.086-.472,1.461,1.461,0,0,1-.107-.558s.07-.042-.022-.065a.532.532,0,0,0,.086-.086c-.1-.064-.053-.261-.043-.343-.007-.037-.066.02-.086-.043.067-.061,0-.155.086-.214-.1-.106-.093-.218-.129-.408a.059.059,0,0,0,.064-.043.189.189,0,0,1-.021-.258c-.083,0-.072-.1-.15-.107a.3.3,0,0,0-.043-.386c.057-.027.112-.217.022-.258-.1.02-.088.154-.215.193.082.083-.23.192-.15.344-.147.022-.1.106-.236.129,0,.05.037.063.022.129-.067-.011-.057.074-.107.022.021.052.007.045.021.129-.044.038-.042-.016-.086.022,0,.07.05.1-.043.107.123.1-.056.292-.107.279-.03.008,0,.038.021.043-.078.016-.053.133-.15.129.013.205-.309.316-.214.558-.063.016-.026.131-.108.129,0,.05.037.063.022.128-.08-.023-.034.08-.107.065a.069.069,0,0,1-.022.107c.024.033.07.045.064.107-.113.038-.005.2-.086.257,0,.021.026.017.043.021a5.283,5.283,0,0,0-.022.751.4.4,0,0,1-.129.107c.088.125.017.185.064.3h-.064c.034.016,0,.105.064.086-.13.221.1.493-.107.579.014.068.034.156-.043.107a.862.862,0,0,1,.043.257c-.127.094-.059.184-.107.365a.534.534,0,0,1-.579.086c-.021,0-.017.026-.022.043-.114-.048-.222-.151-.365-.107,0-.074-.043-.1-.129-.086-.027-.169-.158-.277-.172-.343-.054,0-.067.033-.086.065-.322-.086-.281-.5-.322-.708.009-.041.008-.092.065-.086,0-.124-.033-.092-.043-.215h.064c-.108-.111-.012-.24-.043-.365a.34.34,0,0,1-.129-.086.6.6,0,0,0-.086-.536c.075-.415-.082-.393,0-.708a.059.059,0,0,0-.064-.043c.1-.13-.1-.19,0-.322-.09-.052-.077-.257-.022-.3-.005-.038-.037-.049-.086-.043.073-.037-.008-.1.086-.128-.076-.044-.046-.272-.021-.343-.006-.044-.057-.043-.086-.065.08-.045-.021-.146.065-.193-.029-.049-.088-.069-.129-.107a.136.136,0,0,0,0-.108.117.117,0,0,0,.086-.085c-.081-.066,0-.162-.086-.215.077.005.022-.121.107-.107-.015-.05-.055-.074-.086-.107,0-.15.117-.333,0-.429.011-.114.229-.215.236-.322a2.466,2.466,0,0,0,.279-.15c.1.175.36.161.365.3.342-.04.417.437.579.644-.088-.018.025.1-.043.129a.931.931,0,0,0,.193.193c-.024.076-.048.193.043.193a.069.069,0,0,1-.107.022c.01.019.019.038.043.043S229.434,158.348,229.435,158.335Z" transform="translate(-215.775 -150.517)" fill="#878787" fill-rule="evenodd"/>
      <path id="패스_286" data-name="패스 286" d="M308.272,160c.1.022.12-.037.107-.129.222.022.15-.251.343-.257a.619.619,0,0,1,.3-.257c-.083-.037.03-.086.022-.172.05.087.122-.082.172-.129.028.007.034.038.064.043.048-.072.079-.061.086-.15.052.012.048.081.064.129.021-.1.1-.023.129-.086a.794.794,0,0,1,.236.107c-.059.066.027.153.086.086.009.055.039.087.064.172a.743.743,0,0,1,.644.236c.052.009.047-.039.107-.021.085.194.348.21.494.343-.058.089.026.012.021.085.037.008.04-.016.043-.043.143.031.131.155.3.193.182.3.575.368.708.666.025-.088.144.031.086.086.069-.018.135.205.15.236.107.211.563.559.172.666.042.015-.005.119.043.128-.074.087-.139.151-.279.107-.048,0-.009.091-.021.129a.507.507,0,0,1-.343.043c-.032.009.008.027,0,.064-.253-.081-.425.033-.622-.043.014.022.049.022.043.064-.205.012-.272.116-.429.129-.016-.07-.078-.094-.129-.129,0,.054.048.052.064.086a.091.091,0,0,1-.107-.086c-.149.1-.345-.085-.45.065-.024-.019,0-.072-.043,0-.055-.11-.3-.026-.386-.107-.049-.007-.024.062-.064.064-.241-.112-.523.141-.708-.064-.029.021-.08.02-.086.064-.115-.13-.153-.046-.279-.043-.032.018-.031.069-.043.107.067,0,.009-.12.107-.086-.09.079,0,.21-.107.258.018.02.113.069.043.107.151.057.167.278.108.429.066.047.066.127.171.086-.015.08.075.054.107.086-.012.052-.014.133.064.129-.014.3.371.366.536.558a1.882,1.882,0,0,1,.622.3c.016-.034.1,0,.086-.064.126.159.285-.034.365.128.168-.071.459,0,.622-.021a.859.859,0,0,1,.129-.107,2.259,2.259,0,0,0,1.438-.558.1.1,0,0,1-.022-.064c.078.006.083-.06.15-.064-.036-.118.043-.211.065-.3.1.023.12-.037.15-.086.226.02.317.02.515.021.083.065-.027.328.043.322a.27.27,0,0,1-.172.236c.045.146-.125.135-.086.279-.1.018-.155.165-.236.129-.018.061.03.056.021.107-.142,0-.121.165-.258.172a.182.182,0,0,1-.022.129c-.116-.006-.207.021-.214.129-.191-.053-.228.137-.3.236a.1.1,0,0,1-.107-.043c-.032.01.008.027,0,.064-.2.075-.431.036-.515.193-.127-.069-.245.1-.322,0-.03.084-.159.069-.172.172-.186-.058-.415.144-.558.15-.11,0-.222-.141-.343-.043,0,.025.039.018.064.022,0,.04-.071.015-.064.064-.027-.059-.1-.068-.15-.107-.027.03-.105.009-.107.064a.069.069,0,0,1-.021-.107c-.173.008-.332-.058-.536-.065v-.064c-.1-.012-.134.038-.236.022-.054-.116-.136-.075-.129-.258-.123.021-.158-.08-.257-.022-.069-.124-.236-.151-.279-.3-.062.052-.134-.025-.15-.086a.181.181,0,0,1-.129.022c0-.067-.055-.074-.107-.086a.094.094,0,0,1,.043-.086c-.074-.056-.069-.116-.172-.172.055-.088-.069-.1.043-.129-.208.019-.154-.125-.236-.279-.05.006-.089.042-.129,0,.09-.161-.064-.335-.15-.451.007-.028.038-.034.043-.065-.031-.04-.048-.095-.129-.086a.8.8,0,0,0-.107-.236c.023-.067.062-.119.064-.15-.018-.032-.069-.031-.107-.043-.03-.079.031-.115-.043-.15.006-.045.057.031.086-.021-.005-.059-.08-.049-.107-.086.082-.187-.015-.307,0-.493-.072.037-.1-.02-.172-.043-.008-.037.017-.04.043-.043a.15.15,0,0,0-.172-.021c.01-.046-.031-.041-.064-.043-.062-.187-.456-.327-.236-.644.044-.013.149.035.129-.043.148.068.333-.047.451-.043.077-.052.058-.2.172-.214.016-.066-.059-.041-.043-.107.121-.024.1-.228.129-.279.021,0,.017.027.021.043.02-.054.023-.161.043-.214.013-.031.026,0,0,0v.043C308.157,160.221,308.243,160.222,308.272,160Zm1.373.9c.214.074.353,0,.6.064,0-.025,0-.061.021-.064.049-.007.024.062.064.064a.479.479,0,0,0,.15-.086c-.03.068.128.054.129.022-.09-.005.025-.08-.043-.108,0,.026-.006.051-.043.043.06-.086-.121-.328-.129-.214-.066-.163-.276-.182-.3-.386-.012.038.026.126-.022.129-.031-.005-.036-.036-.064-.043-.012.088-.112.087-.172.129-.038-.019-.063-.052-.107-.065-.025.057-.019.067-.086.043a.4.4,0,0,1-.3.279c-.018.061.03.056.022.107-.058-.066-.1.075-.172,0,.008.077.035.137.107.15.054-.107.259-.034.322-.172C309.606,160.851,309.654,160.846,309.646,160.9Z" transform="translate(-281.931 -152.619)" fill="#878787" fill-rule="evenodd"/>
      <path id="패스_287" data-name="패스 287" d="M401.034,206.176c.076.012.01-.11-.021-.172,0-.047.018-.068.064-.065-.011-.055-.028-.075.022-.107-.124.014.011-.1-.064-.107.044-.2.233-.506,0-.687.032-.025.052-.062.107-.064-.04-.051.026-.123-.043-.172a.191.191,0,0,1,.086-.086c-.067-.106.008-.105-.021-.236-.005-.055-.037.029-.086,0-.015-.122.176-.26.022-.322-.008-.144.141-.131.215-.193a.18.18,0,0,1,.086.172.774.774,0,0,0,.258-.128c.075.036.1.054.171,0v.086c.151-.185.394.191.58.086-.018.068.034.067.043.107a.919.919,0,0,1,.579.172c.006.049-.005.08-.043.085a.444.444,0,0,1,.236.343c-.207.146-.451.422-.322.622,0,.069-.038.091-.021.172-.059-.016-.043.043-.086.043,0,.053.04.066,0,.107.191.159.005.4.065.537,0,.028-.012.221.043.257a.927.927,0,0,1-.086.279h.043c.045-.006-.031-.058.022-.086.053.047-.01.161-.043.193.065.132-.006.142.086.322a.38.38,0,0,0-.064.086c0,.05.059-.008.043-.043a.2.2,0,0,1-.107.236.2.2,0,0,0,.107.086.8.8,0,0,0,.064.343c-.025,0-.038,0-.043.022-.037.008-.041-.017-.043-.043-.123.057.094.252-.065.279.009.041.083.017.065.086-.039,0-.046.026-.086.022.034.006.124.122.022.129-.014.093.09.067.086.15-.045-.009-.057.015-.086.022.005.206.093.28,0,.451.019.031.032.068.086.064-.105.071-.119.252.022.279.023.117-.032.185.043.236-.012.062-.033-.033-.064-.022a.434.434,0,0,1,0,.365c.1.045.006.184.086.215-.071,0-.1-.009-.022.085a.473.473,0,0,0,.043.429c-.046.037-.025.194,0,.258.032-.009-.009-.027,0-.064.1-.006.025.156.129.086-.011.032-.032.054-.043.086.085-.025.181.154.3.086.066.021-.025.057-.022.086.04.02.072-.064.086,0s-.044.035-.064.021c.019.048.143.112.15.043.032.025.1.018.086.086.1,0,.146-.07.279-.043,0,.07.05.138-.043.15-.018-.061.03-.056.021-.107-.047-.014-.068.061-.064-.022-.044.021-.085.044-.129.065.065.1.339.085.3.215.031-.012.111.025.107-.022.032.01-.008.027,0,.065a.244.244,0,0,1,.236.043.176.176,0,0,0,.043-.129,2.064,2.064,0,0,1,.343.15c-.09.137-.28-.107-.365-.021.019.038.1.036.043.086.3.066.356.03.472.279a1.3,1.3,0,0,0,.365.043c0,.039-.026.045-.021.086.1-.055.121.056.215.065-.011.067.047.084,0,.128.144-.025.149.141.258.086,0,.1.04.037.064.15.025,0,.018-.039.021-.064.06.114.188.156.3.3.018.068-.034.066-.043.107a.357.357,0,0,0,.086.064c.013.173-.019.382,0,.494a.118.118,0,0,0-.086.086c0,.025.039.018.064.021-.107.058-.111.218-.236.258-.03.244-.372.357-.451.622-.065-.016-.063.037-.129.021.049.052-.022.1-.022.172-.093-.014-.07.088-.172.064.037.1-.131.111-.15.215-.023-.005-.015-.042-.043-.043-.039.068-.16.1-.107.193-.273-.07-.343.317-.558.258-.032.009.008.027,0,.064-.076.011-.1.063-.172.021a.28.28,0,0,1,.043.15c-.11-.053-.206.074-.322.086.057.107-.209.219-.257.15-.093.1-.214.172-.236.344h-.107c.022.1-.035.122-.064.171-.07-.1-.143-.035-.257-.107-.047.024-.118.025-.129.086-.139-.066-.344,0-.408-.086-.107.076-.323.061-.343.193-.087-.016-.153-.085-.236-.043-.024-.1-.195-.048-.193-.172-.124-.013-.133-.009-.258-.021.03-.03.021-.129-.043-.129.037-.013,0-.1.043-.107-.179-.166-.155-.408-.322-.515-.036.009,0-.08.022-.085-.077-.08-.1-.217-.236-.236.019-.038.052-.063.064-.107.048-.012.031.041.064.043.04-.055.046-.01.086-.064-.012-.086-.114-.144-.021-.215-.08.036-.042,0-.086-.043.167-.322-.021-.62.064-1.073,0-.025-.039-.018-.064-.022,0-.047.018-.068.064-.064a2,2,0,0,1-.043-.815c0-.04-.073-.013-.086-.043.1-.079-.039-.256.086-.3a.151.151,0,0,0-.064-.043,8.094,8.094,0,0,0-.021-.9c.07,0,.041-.125-.021-.15a3.872,3.872,0,0,0,.107-.858c.018-.042.081-.063,0-.129.093-.09.049-.286.129-.429-.127-.169.077-.346,0-.558,0-.025.039-.018.064-.021-.044-.066.044-.153-.064-.172a3.323,3.323,0,0,0,.021-1.137c-.007-.05.062-.024.064-.065-.178-.18.072-.521-.064-.729.1-.117-.091-.35.064-.429-.067-.11-.09-.152.021-.236C400.971,206.567,401.148,206.391,401.034,206.176Zm2.039,7.21c.061.047.109.1.043.172.17.123.066.237.086.386.049-.006.081.005.086.043a.5.5,0,0,0-.043.386.1.1,0,0,0-.064.022c.029.1.072.206-.043.236.088.027.112.116.15.193-.119-.017-.026.215-.022.279a.178.178,0,0,1,.193-.086c.041-.041-.013-.039,0-.107a.1.1,0,0,0,.064-.021c0,.025-.038.048,0,.064.082-.089.247-.1.279-.236v.065c.054,0,.067-.033.086-.065-.037-.008-.055.032-.064,0,.028,0,.02-.037.043-.043,0,.028.06.027.065,0a.05.05,0,0,1-.021-.086c.038,0,.05.021.043.064.135.021.079-.15.215-.129,0-.13.06-.108.022-.236.144.046.1-.155.193-.043.031-.081-.059-.041-.043-.107.059-.016.043.043.086.043a.981.981,0,0,0,.193-.622c-.177-.137-.31-.13-.472-.236.015-.038.024-.067,0-.086-.176.053-.347-.133-.494-.043.009-.095-.125-.047-.129-.129-.109.009-.132-.009-.172.043v-.086c-.079.014-.082-.046-.15-.043-.033.06-.052.134-.129.15,0-.012-.018-.024-.021,0C403.149,213.165,403.105,213.335,403.073,213.386Z" transform="translate(-360.123 -190.605)" fill="#878787" fill-rule="evenodd"/>
      <path id="패스_288" data-name="패스 288" d="M337.546,218.014c.049.027.071-.126-.022-.129.063-.086.035-.173-.043-.257.058-.057.14-.259.021-.322.007-.313.159-.6.021-.944.075-.053.109-.188.043-.236.023-.02.007-.079.064-.064-.15-.193.078-.383-.107-.515.018-.061.1-.059.107-.129-.034-.017-.126-.169,0-.15-.02-.058-.117-.041-.086-.15.018,0,.02.008.022.021h.043c-.03.032-.069.046.022.043.01-.067-.054-.061-.086-.086.077-.087,0-.09-.064-.129.025-.085-.009-.15.086-.193-.052.018-.062-.062-.129-.086.093-.056-.017-.118.086-.15-.06-.117,0-.284.107-.3.049-.151.272-.183.429-.107.021,0,.017-.026.022-.043.044.034.137.02.15.086.04,0,.013-.073.043-.086.233.056.71,0,.686.365a.264.264,0,0,1,.107.408c0,.025.039.018.064.021-.141.244.054.516.043.773,0,.023-.076.052,0,.086,0,.025-.039.018-.064.022.045.026.088.042.021.086.066.047.087.106.129.128a1.044,1.044,0,0,0-.043.258c.126-.159.155.161,0,.129.049.037.02.152.086.172a.059.059,0,0,1-.064.043c.111.091-.019.162.107.236a.059.059,0,0,1-.064.043c.114.08.014.243.15.3-.05.085.04.066.043.15-.057.2.068.333.043.6.041-.009.017-.083.086-.064,0,.061-.061.054-.086.086.017.069.064.108.064.193.044-.042.123.1.172,0,.06.012.04.1.064.15-.029.022-.08.02-.086.065-.063-.008-.042-.1-.086-.129-.048.009-.009.105-.021.15.056-.064.057.082.15.172-.021,0-.017-.026-.021-.043-.029.016-.132.131-.086.086.048.057,0,.3.129.279.065.053-.095.061-.107.107.064.182.063.3.172.408-.061.062-.086.184.021.215-.087.045-.056.217.021.257,0,.047-.018.068-.064.065.135.118-.006.266.129.408,0,.047-.017.068-.064.064.042.037.033.124.129.107-.013.14.064.164.129.279,0,.209-.054.63.215.794.021.113-.052.263.107.322.019.068-.034.066-.043.107.055-.057.031.041.086.043-.114.224.084.311.129.579.059-.083.116.136.172.193h.15c-.063.053-.081.085.021.107-.018.152-.017.214.064.3a.8.8,0,0,0-.107.236c.106.045.024.155.064.257-.083.01-.085.1-.15.021.03.028.021.093.022.15-.038-.006-.044.021-.022.022-.018.032-.069.031-.107.043.041.054-.018.084.021.15-.121.02-.1.1-.065.193-.056.079-.17.119-.171.193-.231.053-.3.121-.408.022-.091.1-.08.015-.279,0-.009.051.1-.012.064.064a1.239,1.239,0,0,0-.15-.064c-.026.045.016.031-.086.021.024.026.019.044-.021.043-.013-.056.009-.077.064-.064-.028-.03-.1-.064-.107,0a.708.708,0,0,0-.343-.322c.021-.106-.068-.068-.022-.15-.079.042-.063-.133-.215-.129.036-.02.075-.079-.021-.064-.008-.037.017-.041.043-.043-.007-.029-.054-.018-.086-.022.082-.061-.085-.112-.021-.15-.106-.044-.162-.139-.279-.172.1-.06-.081-.089-.129-.129.038-.073-.007-.08-.064-.107.046-.046-.012-.1-.065-.107a.238.238,0,0,0-.107-.236c.057-.066-.042-.155.022-.215a.154.154,0,0,0-.064-.043c.018-.017.013-.059.043-.064-.009-.032-.027.008-.065,0,0-.062.005-.109.043-.129a.667.667,0,0,1-.15-.193.368.368,0,0,1,.064-.085.539.539,0,0,0-.107-.151c.1-.078-.084-.214.022-.3a.152.152,0,0,0-.065-.043c-.028-.1.035-.191.022-.279-.01-.061-.074-.058-.086-.107-.007-.029.05-.079.043-.107-.032-.115-.119-.162-.129-.258,0-.033.028.029,0-.022-.014-.025-.03-.11.043-.086,0-.025-.039-.018-.064-.021.1-.1,0-.395-.021-.6-.019.01-.038.019-.043.043-.042-.011.093-.159-.043-.15,0-.041.071-.015.064-.064-.071-.035-.089-.391-.107-.408.048-.1-.1-.2-.043-.365a.154.154,0,0,0-.064-.043c.007-.05.022-.092.064-.107-.06-.032-.035-.065,0-.107-.191-.248-.018-.51-.15-.772.019-.033.032.006.086-.022-.053-.04-.077-.053-.022-.107A.149.149,0,0,0,337.546,218.014Z" transform="translate(-307.278 -199.052)" fill="#878787" fill-rule="evenodd"/>
      <path id="패스_289" data-name="패스 289" d="M278.391,218.818c.015-.041.033.023,0,.022.056.044.163-.04.193.064a3.105,3.105,0,0,1,1.352.021c.032.039,0,.144.107.108.01.067-.058.057-.065.107.037.085.151.206.214.193.079.071-.007.307.129.322-.06.032.037.088-.021.107.019.072.048,0,.086.043-.078.05.071.074,0,.107.024.055.1.062.172.065-.015.072.044.07.064.107,0,.021-.026.016-.043.021.067.111.248.11.3.236h-.086c.19.236-.129.449-.193.6-.021,0-.017-.026-.022-.043-.026.066-.014.067-.043.15-.028-.042-.14.024-.129.021-.082.015-.209-.037-.215.043-.1-.033-.15.052-.236-.043a.1.1,0,0,1,.021.065c-.106-.081-.287.015-.408-.086-.061.086-.142.057-.215,0,.01.107-.213,0-.279-.022-.022-.006-.019.044-.022.043-.126-.024-.255-.121-.429-.021-.1-.169-.334-.082-.536-.086-.017.09-.112.1-.172.15-.038-.116-.288.145-.386,0-.215.066-.357.3-.6.215-.038.019-.062.052-.107.064,0,.025,0,.038.022.043-.143.049-.278.184-.429.171,0,.039.026.045.022.086-.075.011-.086.086-.193.064-.012.166-.313.082-.3.322-.1.021-.129-.03-.236.021a.1.1,0,0,1,.021.064c-.18-.009-.176.22-.365.258-.024.02-.007.04-.021.107-.053-.08-.064.1-.107.021-.084.034-.008.116-.086.129-.008.036.017.04.043.043-.118.149-.313.176-.365.429-.056-.013-.077.009-.064.064-.037.008-.04-.017-.043-.043-.051.123.04.178-.15.279.043.019,0,.248-.129.236a.182.182,0,0,1,.021.129c-.046-.01-.041.031-.043.064a.139.139,0,0,1-.107-.022c.02.058,0,.154-.043.107.036.027-.03.217.043.215-.1.033-.131.08-.215.086a1.049,1.049,0,0,1-.279.644c.009.077.057.115.043.215-.044-.038-.119.023-.172.043.05.084-.026.1-.086.129.006.029.054.018.086.021-.024.026-.018.044.022.043a3.938,3.938,0,0,1-.193.344c-.03,0-.061,0-.064-.021-.022.014-.022.049-.065.043,0,.06.1.026.086.107a.282.282,0,0,1-.15.043c-.034.123.03.1.022.236-.056-.006-.017.083-.086.065a.605.605,0,0,0,.172.365c.006.006-.033.034-.021.043.084.07.134.015.257.064.024,0,.012-.022,0-.021a9.666,9.666,0,0,0,2.253-.536.1.1,0,0,1-.021-.064c.091.036.2-.047.236-.086.055.037.083-.033.086.043.081-.1.355-.055.3-.171.069-.019.029.07.086.064.086-.061.221-.052.236-.107.135-.028.227-.173.408-.172-.016,0,.044-.023.043-.021a1.1,1.1,0,0,1,.257-.172c.194-.086.247-.164.408-.236.145-.065.159-.251.3-.365.169.04.236-.088.365,0,0-.038-.026-.045-.021-.086.061.081.175-.033.129.043.064-.014.032-.125.085-.15.061.065.217-.012.3,0-.028-.086-.115-.114-.129-.214.159.169.4.117.344-.15.058-.013.17.027.193-.021.252.117.423.062.665.236v.15c.006.045.058-.032.065.043.055-.005-.029-.037,0-.086.087-.019.1-.046.193-.021,0,.2.3.1.365.236.08-.076.147.019.215.107.016.058-.043.043-.043.086.031,0,.057.049.15.043a.751.751,0,0,1,.021.215c-.213.016-.274.184-.494.193-.032.053-.053.119-.15.107-.005.188-.273.183-.257.365-.064-.051-.079-.012-.107.086a.825.825,0,0,0-.365.258c-.04.01-.129-.029-.107.043a.694.694,0,0,0-.172-.043c-.017.137-.314.071-.258.214-.045.009-.057-.015-.086-.021-.016.2-.252.177-.408.236.006.045.057-.031.086.022-.069.06-.18.034-.322.064-.026.069.069.017.043.086-.061.018-.056-.03-.107-.021-.032.009.008.027,0,.064-.133-.035-.185.151-.257.193a3.522,3.522,0,0,1-.6.107c.034.088-.267.044-.193.172a.152.152,0,0,1-.043-.065.529.529,0,0,1-.279.107c0,.031,0,.061.022.064,0,.061-.059-.051-.043.043-.021-.037-.067-.047-.107-.064-.057-.006-.017.083-.086.064.057-.054-.041-.054-.043,0-.06,0,.051-.058-.043-.043-.029.007-.018.054-.021.086a1.159,1.159,0,0,1-.214-.021.319.319,0,0,1-.408.107c-.1.057-.138.122-.258.086a.117.117,0,0,0-.086.085.964.964,0,0,0-.708.215c-.154-.051-.219.139-.365.021-.042.093-.371.148-.408.043-.028.1-.14-.007-.172.086a.657.657,0,0,0-.129-.043c0,.106-.186-.025-.193.15-.037-.039-.084.006-.086.064-.031,0-.007-.064-.043-.064-.051.014,0,.132-.043.15a.093.093,0,0,1,0-.107c-.051-.011-.088.158-.107.043,0,.131-.237.12-.322.086-.007.043,0,.067.043.065-.049.037-.083,0-.172,0-.032.009.008.027,0,.064a.168.168,0,0,0-.236.086c-.163-.092-.194-.008-.386-.043a.265.265,0,0,1-.472-.064c-.082.1-.14-.094-.258-.022-.046-.157-.32-.182-.429-.15.079-.031-.041-.182.064-.214,0-.083-.064-.1-.129-.065.049-.071.032-.069,0-.15.056-.049.073-.068.043-.129-.052-.009-.047.039-.107.021-.017-.146-.061-.163-.15-.257a.059.059,0,0,1,.064-.043c.009-.095-.049-.123-.086-.172a.081.081,0,0,1,.086-.086c-.1-.024-.021-.092-.086-.15.036-.051.058-.1.129-.064.059-.019-.042-.079.043-.086-.032-.025-.052-.062-.107-.064.022-.038.082-.132,0-.15a.39.39,0,0,0,.043-.258c.049-.022.069-.074.15-.065-.026-.093.016-.142-.043-.258h.064a.6.6,0,0,1-.043-.193c.133.053.13-.141.086-.15.165-.107.032-.392.236-.472-.007-.05-.034-.081-.022-.15.041-.009.039-.061.107-.043.014-.047-.061-.068.021-.064,0-.054-.033-.067-.064-.086.212-.143.133-.484.365-.6-.01-.019-.019-.038-.043-.043.173-.116.154-.347.3-.451,0-.05-.037-.063-.022-.129.185-.069.029-.428.279-.429-.018-.126.088-.049.086-.258.137.008.071-.186.215-.172-.082-.145.206-.174.043-.236.067-.07.04-.1.107-.172.158.029.155-.244.172-.343.1-.014,0-.1.107-.086-.04-.083.05-.058,0-.151a.107.107,0,0,0,.086-.15c.057-.043,0,.087.064.086.033-.024.053-.062.086-.086-.1-.133.16-.271.129-.365.072-.023.073.007.15-.021-.009-.041-.083-.017-.064-.086a.8.8,0,0,0,.45-.451,1.78,1.78,0,0,0,.408-.429c.174.017.161-.153.236-.236.151.03.209-.163.365-.193-.027-.1-.011-.032.064-.064a.1.1,0,0,1-.021-.065c.222.03.241-.23.429-.214a.058.058,0,0,0-.043-.064c-.006-.039.083,0,.064.043a.943.943,0,0,0,.322-.258c.032.011.054.032.086.043.03-.131.235-.035.215-.172.059-.016.043.042.086.043.19-.258.622-.174.815-.322a1.544,1.544,0,0,0,.6-.107c.165.065.381-.074.536,0C278.346,218.9,278.363,218.854,278.391,218.818Z" transform="translate(-251.834 -202.989)" fill="#878787" fill-rule="evenodd"/>
      <path id="패스_290" data-name="패스 290" d="M362.564,239.961c-.051-.047.052.019.064-.022-.014-.022-.049-.022-.043-.064.028-.026.034-.008.064,0-.071-.086-.043-.124,0-.236-.077-.018.025-.081-.064-.086-.014-.107.1-.241,0-.343.046-.054.128-.072.107-.193.33-.14.53-.274.858-.129.16-.127.446-.093.579-.15.071.044.2.145.3.086a.615.615,0,0,1,.172.644.059.059,0,0,0-.086,0c.1.178-.049.275-.022.429-.116-.021.009.064-.107.043.026.075.069.153-.043.172.03.022.037.152-.022.086.079.133-.047.125.022.257-.106.036-.11.3,0,.343-.057.05-.063.151-.129.193.02.129-.007.19-.065.236.019.113.068.162-.021.236a.06.06,0,0,0,.064.043.43.43,0,0,1-.172.322c.093,0,.137.065.172.171-.124,0-.087.157-.215.15.1-.008.143.152.215.236a4.137,4.137,0,0,0,1.073-.107c.031-.026.032-.082.065-.107a.842.842,0,0,0,.579-.172.982.982,0,0,0,.215-.343c.009-.017.1-.091.129-.086,0-.1.016-.258.086-.215-.006-.178.06-.32.022-.429.01-.031.019,0,.043,0a1.24,1.24,0,0,0,.129-.665.1.1,0,0,1,.065-.022.186.186,0,0,1,.021-.236,1.749,1.749,0,0,0-.086-.193c.105-.009.09-.139.15-.193,0-.025-.039-.018-.065-.022v-.085c.078-.059.183.041.215-.065a.785.785,0,0,1,.15.043c.106-.046.076-.155.129-.215-.009-.041-.083-.017-.064-.086.052.014.11.043.107-.043.027.046,0,.048.043.107.068.03.129-.053.15,0,.029-.006.018-.054.021-.086.182.035.221.123.451.086.04.1.049.12.129.15a.059.059,0,0,1-.043.065c.24.111.009.306.064.515-.135.1-.1.373-.236.515.019.064.032-.05.086-.021,0,.018-.008.02-.022.021-.042-.008-.032.1.022.065-.121.035-.011.14-.108.236.013.069.045.04.065.064,0,.1-.076-.034-.086-.064-.025.048-.036.148-.086.172.009.041.083.017.064.086-.017,0-.021-.022-.043-.022.022.233-.2.329-.193.558-.045.013-.069.045-.107.064.028.122-.04.179-.129.236.016.154-.058.276-.022.365,0,.04-.072.013-.086.043.013.058-.027.171.021.193-.019.032-.032.068-.086.064-.01.041.066.093-.021.086.018.095.064.148,0,.258.124,0,.069.174.172.193a.12.12,0,0,0-.021.086c-.059.016-.043-.043-.086-.043-.036.064.037.161-.086.193a.333.333,0,0,1,.086.15c-.089-.064-.114.139-.043.107-.057.073.01.2-.086.193,0,.021.026.017.043.022,0,.053-.034.066-.043.107-.1-.013-.122-.025-.15.064-.23.109-.313-.211-.429-.279,0-.088,0-.169-.086-.172.039-.162-.011-.2-.043-.365.044-.006.057-.043.086-.064a.153.153,0,0,0-.065-.043c.005-.038.037-.049.086-.043a.094.094,0,0,0-.086-.043c-.005-.162.077-.174.107-.257,0-.047-.076-.01-.107-.022,0-.025,0-.038-.021-.043.065-.047,0-.187.107-.236-.058-.04-.062-.015-.043-.108-.005-.023-.043-.015-.043-.043-.1.1-.05.35-.236.365.031.031.032.083-.043.064a.12.12,0,0,1,.022.086c-.1.059-.138.075-.172.171.021,0,.017-.026.022-.043.008.226-.271.223-.429.3-.027.013-.014.068-.043.086-.114.068-.3.009-.408.086.022.093-.044.1-.065.15-.172-.057-.452.178-.708.193a.121.121,0,0,1,.021.086c-.143-.081-.392.071-.536.043-.025,0-.018.039-.021.064-.118.023-.439-.072-.515.064-.232-.025-.328-.187-.515-.257a.334.334,0,0,0,0-.193c-.025.088-.147-.068-.107-.107a.059.059,0,0,0-.065.043c.006-.048,0-.154-.064-.172-.053-.166.035-.5,0-.622,0-.025.039-.018.064-.022-.022-.12.038-.165.043-.279,0-.048-.04-.027-.043-.043-.009-.051.039-.074.043-.129,0-.027-.058-.1-.043-.129.038-.079-.023-.28-.021-.429.005-.353.117-.662.129-1.051,0-.043-.042-.073-.043-.107-.005-.138.128-.25.107-.408C362.578,240.083,362.6,240.008,362.564,239.961Z" transform="translate(-328.09 -219.626)" fill="#878787" fill-rule="evenodd"/>
      <g id="그룹_5072" data-name="그룹 5072" transform="translate(7.746 3.663)">
        <path id="패스_291" data-name="패스 291" d="M202.087,142.137a.023.023,0,0,1,0-.033h0a.235.235,0,0,0,.045-.139h0a.468.468,0,0,0-.11-.268h0c-.013,0-.036.007-.049.008h0l-.022.021h0a.023.023,0,0,1-.033,0h0a.024.024,0,0,1,0-.033h0a.279.279,0,0,1,.031-.027h0a.3.3,0,0,1,.075-.016h0a.049.049,0,0,1,.019,0h0l.006,0,0,.005a.521.521,0,0,1,.126.3h0a.28.28,0,0,1-.054.166h0a.024.024,0,0,1-.019.01h0a.024.024,0,0,1-.014,0Z" transform="translate(-201.906 -141.65)" fill="#878787"/>
      </g>
    </g>
    <path id="패스_292" data-name="패스 292" d="M202.27,155.227" transform="translate(-39.395 -29.952)" fill="#878787"/>
  </g>
</svg>
