<svg xmlns="http://www.w3.org/2000/svg" width="68" height="64" viewBox="0 0 68 64">
  <g id="그룹_5058" data-name="그룹 5058" transform="translate(-210.663 -281.883)">
    <path id="패스_14" data-name="패스 14" d="M293.639,289.644a3.4,3.4,0,0,0-2.371,1.313,1.561,1.561,0,0,0-1.176-1.268s-1.427-.437-3.454,1.659a1.607,1.607,0,0,0-1.68-1.7s-1.313-.046-3.155,1.911a1.846,1.846,0,0,0-1.865-1.888,3.232,3.232,0,0,0-2.971,1.774s-.5,1.289.714,1.635c0,0-1.657.921-1.8,2.026,0,0,0,.6.462.713,0,0,.46.185.9-.552a4.043,4.043,0,0,0,1.844.576,3.022,3.022,0,0,0,1.934-1.313,1.938,1.938,0,0,0,1.657,1.313s1.314.069,2.877-1.936a2.166,2.166,0,0,0,1.406,1.89s1.934.6,4.053-3.156a1.107,1.107,0,0,0,.667.414s-1.635.944-1.8,2.072a.612.612,0,0,0,.6.69s.346.14.76-.575c0,0,1.542.968,2.326.438,0,0,1.566-.6,1.566-1.842l-.646-.553-.736.76-.46-.207s2.625-.9,2.486-2.373c0,0,.091-1.819-2.142-1.819m-12.779,4.007-.369-.346-.782.761c-.023-.114-.415-.208-.415-.208a14.765,14.765,0,0,0,1.681-.874,4.245,4.245,0,0,0-.115.668m1.935.806s1.382-3.247,2.256-3.453c0,0-.391,2.6-2.256,3.453m4.651,0s1.38-3.247,2.256-3.453c0,0-.39,2.6-2.256,3.453" transform="translate(-41.173 -4.537)" fill="#fff"/>
    <path id="패스_15" data-name="패스 15" d="M309.225,282.21s14.368-2.549,14.491,6.591c0,0,4.606,4.653,5.957,7.866,0,0,.062-.443.246-1.164a4.7,4.7,0,0,0-2.334-1.551,4.531,4.531,0,0,1-.736-3.49,6.33,6.33,0,0,0-2.7-5.04s5.9.276,8.413,5.04a5.008,5.008,0,0,1-1.1,5.1,8.549,8.549,0,0,1-.492,4.211s1.474,4.487,1.289,6.869a1.967,1.967,0,0,1,.553-.831,4.675,4.675,0,0,1-1.473-2.326,5.866,5.866,0,0,1,.8-3.878,18.408,18.408,0,0,0,2.027-5.483s7.921,8.863.185,12.021a44.225,44.225,0,0,1-2.149,4.654,28.165,28.165,0,0,1-1.289,7.367,11.716,11.716,0,0,1,1.535-1.274s-1.412-2.99,1.412-6.149a46.882,46.882,0,0,1,6.079-4.93s2.641,13.849-6.387,12.076a54.873,54.873,0,0,1-3.99,3.933,37.334,37.334,0,0,1-3.624,6.426,2.911,2.911,0,0,0,2.089-.83s-.984-3.878,4.359-5.6a19.545,19.545,0,0,0,6.448-3.546s-.677,13.683-9.641,10.47c0,0-1.166.942-4.79,1.55a30.227,30.227,0,0,1-4.36,4.63,3.21,3.21,0,0,0,1.9-.313s2.838-7.588,12.565-2.342c0,0-2.181.5-5.469,3.342,0,0-3.427,2.436-6.75.375a23.235,23.235,0,0,1-4.4.5s-3.685,3-4.177,3.227l-1.782-2.383s1.9-.553,5.281-3.379c0,0-.123-.166.122-.665,0,0-.368,0-.982-1.162,0,0-1.044,0-3.072,1.828,0,0-4.114,3.268-7.612,1.551,0,0,2.088.333,4.545-4.1,0,0,3.5-4.377,7.186-.832a1.859,1.859,0,0,0,.367,1.107,5.245,5.245,0,0,1,.429-1.162s-3.255-2.769-1.043-5.6c0,0,2.025-1.219,1.657-4.93,0,0,2.641.886,4.113,5.318a4.849,4.849,0,0,1-3.192,5.429l-.184.887a62.669,62.669,0,0,0,4.422-5.208s-.061-3.269.061-3.934c0,0-4.728-2.658-1.781-6.2a8.317,8.317,0,0,0,.614-5.928s8.045,5.429,2.947,11.91c0,0,.123,1.275.185,1.441a26.745,26.745,0,0,0,2.455-6.371,37.756,37.756,0,0,0-1.964-5.983s-4.973-2.271-2.025-6.814a9.362,9.362,0,0,0-.063-5.65s9.026,5.374,3.745,12.408l1.292,2.327a23.367,23.367,0,0,0-1.72-16.563s-5.466-3.821-8.473-3.323c0,0-4.912.443-7.553-2.658,0,0,1.964.886,4.976-.666a5.109,5.109,0,0,1,7.182,2.659,15.871,15.871,0,0,0,2.7,1.33s-2.578-3.822-4.053-4.93a7.607,7.607,0,0,1-6.385-3.047,22.057,22.057,0,0,0-6.878-4.209" transform="translate(-61.624)" fill="#fff"/>
    <path id="패스_16" data-name="패스 16" d="M241.724,282.21s-14.368-2.549-14.491,6.591c0,0-4.606,4.653-5.957,7.866,0,0-.062-.443-.246-1.164a4.7,4.7,0,0,1,2.333-1.551,4.531,4.531,0,0,0,.736-3.49,6.33,6.33,0,0,1,2.7-5.04s-5.9.276-8.413,5.04a5.009,5.009,0,0,0,1.1,5.1,8.555,8.555,0,0,0,.492,4.211s-1.474,4.487-1.288,6.869a1.961,1.961,0,0,0-.553-.831,4.674,4.674,0,0,0,1.473-2.326,5.866,5.866,0,0,0-.8-3.878,18.408,18.408,0,0,1-2.027-5.483s-7.921,8.863-.185,12.021a44.228,44.228,0,0,0,2.149,4.654,28.164,28.164,0,0,0,1.289,7.367,11.72,11.72,0,0,0-1.535-1.274s1.412-2.99-1.412-6.149a46.9,46.9,0,0,0-6.079-4.93s-2.641,13.849,6.387,12.076a54.862,54.862,0,0,0,3.99,3.933,37.328,37.328,0,0,0,3.624,6.426,2.91,2.91,0,0,1-2.089-.83s.983-3.878-4.359-5.6a19.549,19.549,0,0,1-6.448-3.546s.677,13.683,9.641,10.47c0,0,1.166.942,4.79,1.55a30.23,30.23,0,0,0,4.36,4.63,3.21,3.21,0,0,1-1.9-.313s-2.838-7.588-12.565-2.342c0,0,2.181.5,5.469,3.342,0,0,3.427,2.436,6.75.375a23.234,23.234,0,0,0,4.4.5s3.685,3,4.177,3.227l1.782-2.383s-1.9-.553-5.281-3.379c0,0,.123-.166-.123-.665,0,0,.368,0,.983-1.162,0,0,1.044,0,3.071,1.828,0,0,4.114,3.268,7.612,1.551,0,0-2.088.333-4.545-4.1,0,0-3.5-4.377-7.186-.832a1.86,1.86,0,0,1-.367,1.107,5.246,5.246,0,0,0-.429-1.162s3.255-2.769,1.043-5.6c0,0-2.024-1.219-1.657-4.93,0,0-2.641.886-4.113,5.318a4.848,4.848,0,0,0,3.193,5.429l.184.887a62.665,62.665,0,0,1-4.422-5.208s.061-3.269-.061-3.934c0,0,4.728-2.658,1.782-6.2a8.318,8.318,0,0,1-.614-5.928s-8.045,5.429-2.948,11.91c0,0-.123,1.275-.185,1.441a26.759,26.759,0,0,1-2.455-6.371,37.818,37.818,0,0,1,1.964-5.983s4.973-2.271,2.025-6.814a9.365,9.365,0,0,1,.063-5.65s-9.026,5.374-3.745,12.408l-1.292,2.327a23.366,23.366,0,0,1,1.72-16.563s5.466-3.821,8.473-3.323c0,0,4.913.443,7.553-2.658,0,0-1.964.886-4.976-.666a5.109,5.109,0,0,0-7.182,2.659,15.855,15.855,0,0,1-2.7,1.33s2.578-3.822,4.053-4.93a7.607,7.607,0,0,0,6.385-3.047,22.057,22.057,0,0,1,6.877-4.209" transform="translate(0)" fill="#fff"/>
    <path id="패스_17" data-name="패스 17" d="M233.161,302.265s1.753,7.111,6.575,9.279c0,0-.055-1.722-.109-2.277l.383-.056a8.191,8.191,0,0,1,1.644-2.889,11.324,11.324,0,0,0,.328,2.722,35.914,35.914,0,0,0,7.671-2.277s4.659-1.889,8.165-1.779c0,0,2.8-.277,8.055,1.834,0,0,5.04,1.778,5.534,1.889a6.044,6.044,0,0,0,.274-2.279s1.534,1.612,1.59,2.612a19.54,19.54,0,0,0,2.466.167l-.056.944s2.63-1.611,4.438-7.89c0,0,2.574,9.669-4.712,13.836l-.056.222a15.028,15.028,0,0,1,7.891,2.667,17.508,17.508,0,0,0-8.053.612s1.082,15.261-17.535,29.171c0,0-11.56-9.224-15.094-18.309a41.658,41.658,0,0,1-2.548-13.419s-9.1-1.972-6.849-14.779" transform="translate(-12.944 -11.916)" fill="#fff"/>
    <path id="패스_18" data-name="패스 18" d="M332.486,413.8s.118,1.691,1.339,1.964l.19-.288a2.785,2.785,0,0,1-1.288-1.82Z" transform="translate(-75.464 -82.072)" fill="#0060af"/>
    <path id="패스_19" data-name="패스 19" d="M315.631,413.5a7.29,7.29,0,0,1,3.85-2.157s-.027-2.021-3.015-1.881a4.253,4.253,0,0,0-3.752,2.781s-1.681,3.262-2.966,3.6c0,0,2.616.486,5.883-2.345" transform="translate(-61.819 -79.785)" fill="#0060af"/>
    <path id="패스_20" data-name="패스 20" d="M370.073,317.892a24.96,24.96,0,0,1-2.374,6.08s-1.139,3.161,1.287,5.245c0,0-1.89,4.553-2.3,4.452,0,0-.331,2.569.041,2.248a36.682,36.682,0,0,0,2.744-6.551s7.154-1.886.6-11.474" transform="translate(-97.219 -22.848)" fill="#0060af"/>
    <path id="패스_21" data-name="패스 21" d="M374.693,326.686s.336,4.7-.962,6.493c-.3.413-.2-.18-.2-.18s.895-1.658,1.162-6.313" transform="translate(-101.291 -28.027)" fill="#fff"/>
    <path id="패스_22" data-name="패스 22" d="M347.8,373.243s5.377-5.169-1.28-11.849a10.684,10.684,0,0,1-1.285,5.978s-2.161,3.126,2.565,5.871" transform="translate(-83.295 -50.029)" fill="#0060af"/>
    <path id="패스_23" data-name="패스 23" d="M351.073,374.687s-.871,5.054-.257,5.267c.529.187.115-.281.115-.281a26.813,26.813,0,0,1,.142-4.987" transform="translate(-86.614 -57.977)" fill="#fff"/>
    <path id="패스_24" data-name="패스 24" d="M351.7,386.662l.489,5.816-1.2,1.711.086-8.09Z" transform="translate(-86.901 -65.293)" fill="#0060af"/>
    <path id="패스_25" data-name="패스 25" d="M353.5,343.022s5.154-5.735-2.237-12.158a11.073,11.073,0,0,1-.866,6.274s-1.989,3.385,3.1,5.884" transform="translate(-87.324 -30.831)" fill="#0060af"/>
    <path id="패스_26" data-name="패스 26" d="M356.6,344.412s-.508,5.285.141,5.462c.563.155.1-.3.1-.3a27.394,27.394,0,0,1-.241-5.164" transform="translate(-91.289 -39.071)" fill="#fff"/>
    <path id="패스_27" data-name="패스 27" d="M356.871,357.561l2.915,6.335-.429,2.469-2.72-8.417Z" transform="translate(-91.424 -47.45)" fill="#0060af"/>
    <path id="패스_28" data-name="패스 28" d="M346.117,311.968a24.024,24.024,0,0,1,6.173,3.918l-.542-1.677s-5-2.281-5.471-3.134Z" transform="translate(-84.23 -18.228)" fill="#0060af"/>
    <path id="패스_29" data-name="패스 29" d="M329.6,307.5a8.446,8.446,0,0,1,4.228.806s.655-1.772-1.912-3.409a3.881,3.881,0,0,0-4.266-.065s-2.716,1.516-3.932,1.027A8.026,8.026,0,0,0,329.6,307.5" transform="translate(-70.565 -13.057)" fill="#0060af"/>
    <path id="패스_30" data-name="패스 30" d="M335.392,385.819a6.523,6.523,0,0,1-1.9,4.992s-1.227,1.35-.082,3.831c0,0,1.011,1.392,1.473,2.011,0,0,4.747-1.826,3.244-6.453,0,0-1.258-3.559-2.736-4.381" transform="translate(-75.981 -65.319)" fill="#0060af"/>
    <path id="패스_31" data-name="패스 31" d="M339.088,395.924s.266,4.133-.568,5.656c-.244.446-.372-.234-.372-.234s.568.345.94-5.422" transform="translate(-78.938 -71.279)" fill="#fff"/>
    <path id="패스_32" data-name="패스 32" d="M335.882,410.242s-1.631,4.442-1.2,6.113l1-1.294s.037-3.677.762-4.739Z" transform="translate(-76.799 -80.253)" fill="#0060af"/>
    <path id="패스_33" data-name="패스 33" d="M354.592,293.558s1.223,1.148,1.39,4.686c0,0-.53,2.562,1.435,3.82a5.694,5.694,0,0,1,1.89,1.713,4.715,4.715,0,0,0,1.322-5.363,8.962,8.962,0,0,0-6.038-4.857" transform="translate(-90.229 -6.825)" fill="#0060af"/>
    <path id="패스_34" data-name="패스 34" d="M363.264,305.018s1.378,3.936,1.109,4.308c-.233.322-.273-.072-.273-.072a19.557,19.557,0,0,0-.836-4.236" transform="translate(-95.298 -13.525)" fill="#fff"/>
    <path id="패스_35" data-name="패스 35" d="M363.488,320.545s1.141-3.415.769-4l.251-.172s.893,1.831-.35,5.752Z" transform="translate(-95.429 -21.554)" fill="#0060af"/>
    <path id="패스_36" data-name="패스 36" d="M318.844,283.395s4.4,2.341,5.753,4.43c0,0,2.477,3.388,6.29,2.619,0,0,1.235-8.205-12.044-7.049" transform="translate(-67.654 -0.819)" fill="#0060af"/>
    <path id="패스_37" data-name="패스 37" d="M333.494,289.383s5.036,3.1,5.056,3.653c.019.475-.373.1-.373.1a30.2,30.2,0,0,0-4.683-3.755" transform="translate(-76.307 -4.385)" fill="#fff"/>
    <path id="패스_38" data-name="패스 38" d="M350.358,414.1s-1.855.588-4.89,3.432c0,0-3.276,2.236-6.257.231a20.421,20.421,0,0,1-4.709.562,5.339,5.339,0,0,0,.45-.8s2.977.432,4.119-.356c0,0,2.405-7.511,11.287-3.074" transform="translate(-78.484 -82.457)" fill="#0060af"/>
    <path id="패스_39" data-name="패스 39" d="M354.17,417.583s-5.173,1.066-5.828,2.113c-.258.414.316.205.316.205s1.241-.972,5.512-2.318" transform="translate(-86.305 -85.285)" fill="#fff"/>
    <path id="패스_40" data-name="패스 40" d="M362.7,382.427s-1.525,1.559-6.123,3.239c0,0-4.222,1.654-3.387,5.506,0,0-.37,1.842-4.791,1.473a11.418,11.418,0,0,0-.737,1.351s4.667-.613,6-2.045c0,0,7.385,4.5,9.036-9.525" transform="translate(-86.175 -63.242)" fill="#0060af"/>
    <path id="패스_41" data-name="패스 41" d="M369.273,391.1s-4.641,5.262-5.336,5.146c-.6-.1.292-.5.292-.5a59.389,59.389,0,0,0,5.044-4.646" transform="translate(-95.57 -68.22)" fill="#fff"/>
    <path id="패스_42" data-name="패스 42" d="M371.5,348.184a34.857,34.857,0,0,0-4.76,4.387,6.526,6.526,0,0,0-1.659,6.913s-3.574,3.809-3.86,3.2c0,0-1.185,2.549-.67,2.481a52.449,52.449,0,0,0,4.836-5.233s7.91,3.24,6.113-11.746" transform="translate(-93.635 -42.002)" fill="#0060af"/>
    <path id="패스_43" data-name="패스 43" d="M377.686,358.5s-2.823,5.839-3.372,6.331c-.384.347-.149-.438-.149-.438s1.506-2.733,3.522-5.893" transform="translate(-101.629 -47.916)" fill="#fff"/>
    <path id="패스_44" data-name="패스 44" d="M331.923,298.269s5.735,5.287,6.162,8.456a21.319,21.319,0,0,1,2.287,15.2s-2.031,9.961-4.629,12.672c0,0-6.923,9.97-12.947,12.409l1.112,1.489s8.394-5.377,12.934-12.877A31.961,31.961,0,0,0,341.66,321.3a25.04,25.04,0,0,0-2.791-15.046s-.606-1.972-6.573-8.079Z" transform="translate(-71.641 -9.526)" fill="#0060af"/>
    <path id="패스_45" data-name="패스 45" d="M265.042,413.8s-.118,1.691-1.339,1.964l-.19-.288a2.784,2.784,0,0,0,1.288-1.82Z" transform="translate(-32.738 -82.072)" fill="#0060af"/>
    <path id="패스_46" data-name="패스 46" d="M270.349,413.5a7.29,7.29,0,0,0-3.85-2.157s.027-2.021,3.015-1.881a4.253,4.253,0,0,1,3.752,2.781s1.681,3.262,2.967,3.6c0,0-2.617.486-5.884-2.345" transform="translate(-34.836 -79.785)" fill="#0060af"/>
    <path id="패스_47" data-name="패스 47" d="M220.759,317.892a24.982,24.982,0,0,0,2.374,6.08s1.139,3.161-1.287,5.245c0,0,1.89,4.553,2.3,4.452,0,0,.331,2.569-.04,2.248a36.705,36.705,0,0,1-2.744-6.551s-7.154-1.886-.6-11.474" transform="translate(-4.287 -22.848)" fill="#0060af"/>
    <path id="패스_48" data-name="패스 48" d="M223.275,326.686s-.336,4.7.962,6.493c.3.413.2-.18.2-.18s-.894-1.658-1.161-6.313" transform="translate(-7.35 -28.027)" fill="#fff"/>
    <path id="패스_49" data-name="패스 49" d="M244.693,373.243s-5.377-5.169,1.28-11.849a10.681,10.681,0,0,0,1.285,5.978s2.161,3.126-2.565,5.871" transform="translate(-19.867 -50.029)" fill="#0060af"/>
    <path id="패스_50" data-name="패스 50" d="M247.918,374.687s.871,5.054.257,5.267c-.529.187-.115-.281-.115-.281a26.805,26.805,0,0,0-.142-4.987" transform="translate(-23.052 -57.977)" fill="#fff"/>
    <path id="패스_51" data-name="패스 51" d="M246.289,386.662l-.489,5.816,1.2,1.711-.086-8.09Z" transform="translate(-21.76 -65.293)" fill="#0060af"/>
    <path id="패스_52" data-name="패스 52" d="M238.815,343.022s-5.154-5.735,2.238-12.158a11.069,11.069,0,0,0,.866,6.274s1.988,3.385-3.1,5.884" transform="translate(-15.663 -30.831)" fill="#0060af"/>
    <path id="패스_53" data-name="패스 53" d="M242.227,344.412s.508,5.285-.141,5.462c-.563.155-.1-.3-.1-.3a27.4,27.4,0,0,0,.241-5.164" transform="translate(-18.207 -39.071)" fill="#fff"/>
    <path id="패스_54" data-name="패스 54" d="M238.375,357.561,235.46,363.9l.43,2.469,2.72-8.417Z" transform="translate(-14.497 -47.45)" fill="#0060af"/>
    <path id="패스_55" data-name="패스 55" d="M244.875,311.968a24.018,24.018,0,0,0-6.172,3.918l.542-1.677s5-2.281,5.471-3.134Z" transform="translate(-17.436 -18.228)" fill="#0060af"/>
    <path id="패스_56" data-name="패스 56" d="M255.749,307.5a8.446,8.446,0,0,0-4.228.806s-.655-1.772,1.912-3.409a3.881,3.881,0,0,1,4.266-.065s2.715,1.516,3.932,1.027a8.027,8.027,0,0,1-5.881,1.641" transform="translate(-25.456 -13.057)" fill="#0060af"/>
    <path id="패스_57" data-name="패스 57" d="M256.548,385.819a6.523,6.523,0,0,0,1.9,4.992s1.227,1.35.082,3.831c0,0-1.012,1.392-1.473,2.011,0,0-4.747-1.826-3.244-6.453,0,0,1.258-3.559,2.736-4.381" transform="translate(-26.633 -65.319)" fill="#0060af"/>
    <path id="패스_58" data-name="패스 58" d="M259.212,395.924s-.266,4.133.568,5.656c.244.446.372-.234.372-.234s-.568.345-.94-5.422" transform="translate(-30.036 -71.279)" fill="#fff"/>
    <path id="패스_59" data-name="패스 59" d="M261.21,410.242s1.631,4.442,1.2,6.113l-1-1.294s-.037-3.677-.762-4.739Z" transform="translate(-30.967 -80.253)" fill="#0060af"/>
    <path id="패스_60" data-name="패스 60" d="M236.132,293.558s-1.223,1.148-1.391,4.686c0,0,.53,2.562-1.435,3.82a5.7,5.7,0,0,0-1.89,1.713,4.714,4.714,0,0,1-1.321-5.363,8.962,8.962,0,0,1,6.038-4.857" transform="translate(-11.17 -6.825)" fill="#0060af"/>
    <path id="패스_61" data-name="패스 61" d="M234.806,305.018s-1.378,3.936-1.109,4.308c.233.322.272-.072.272-.072a19.606,19.606,0,0,1,.837-4.236" transform="translate(-13.446 -13.525)" fill="#fff"/>
    <path id="패스_62" data-name="패스 62" d="M234.318,320.545s-1.141-3.415-.769-4l-.251-.172s-.893,1.831.351,5.752Z" transform="translate(-13.051 -21.554)" fill="#0060af"/>
    <path id="패스_63" data-name="패스 63" d="M263.842,283.395s-4.4,2.341-5.754,4.43c0,0-2.476,3.388-6.29,2.619,0,0-1.236-8.205,12.044-7.049" transform="translate(-25.706 -0.819)" fill="#0060af"/>
    <path id="패스_64" data-name="패스 64" d="M259.068,289.383s-5.036,3.1-5.056,3.653c-.019.475.373.1.373.1a30.181,30.181,0,0,1,4.683-3.755" transform="translate(-26.93 -4.385)" fill="#fff"/>
    <path id="패스_65" data-name="패스 65" d="M227,414.1s1.855.588,4.889,3.432c0,0,3.277,2.236,6.258.231a20.422,20.422,0,0,0,4.709.562,5.29,5.29,0,0,1-.45-.8s-2.977.432-4.119-.356c0,0-2.405-7.511-11.287-3.074" transform="translate(-9.553 -82.457)" fill="#0060af"/>
    <path id="패스_66" data-name="패스 66" d="M237.213,417.583s5.173,1.066,5.827,2.113c.258.414-.316.205-.316.205s-1.242-.972-5.512-2.318" transform="translate(-15.753 -85.285)" fill="#fff"/>
    <path id="패스_67" data-name="패스 67" d="M215.818,382.427s1.525,1.559,6.124,3.239c0,0,4.222,1.654,3.387,5.506,0,0,.37,1.842,4.791,1.473a11.45,11.45,0,0,1,.737,1.351s-4.666-.613-6-2.045c0,0-7.385,4.5-9.036-9.525" transform="translate(-3.014 -63.242)" fill="#0060af"/>
    <path id="패스_68" data-name="패스 68" d="M222.6,391.1s4.642,5.262,5.336,5.146c.6-.1-.291-.5-.291-.5A59.365,59.365,0,0,1,222.6,391.1" transform="translate(-6.98 -68.22)" fill="#fff"/>
    <path id="패스_69" data-name="패스 69" d="M212.215,348.184a34.827,34.827,0,0,1,4.76,4.387,6.526,6.526,0,0,1,1.659,6.913s3.574,3.809,3.86,3.2c0,0,1.185,2.549.669,2.481a52.447,52.447,0,0,1-4.835-5.233s-7.911,3.24-6.114-11.746" transform="translate(-0.752 -42.002)" fill="#0060af"/>
    <path id="패스_70" data-name="패스 70" d="M216.937,358.5s2.823,5.839,3.372,6.331c.384.347.15-.438.15-.438s-1.506-2.733-3.522-5.893" transform="translate(-3.668 -47.916)" fill="#fff"/>
    <path id="패스_71" data-name="패스 71" d="M240.912,298.269s-5.736,5.287-6.163,8.456a21.321,21.321,0,0,0-2.287,15.2s2.031,9.961,4.629,12.672c0,0,6.922,9.97,12.947,12.409l-1.112,1.489s-8.394-5.377-12.935-12.877a31.965,31.965,0,0,1-4.816-14.311,25.043,25.043,0,0,1,2.79-15.046s.606-1.972,6.574-8.079Z" transform="translate(-11.869 -9.526)" fill="#0060af"/>
    <path id="패스_72" data-name="패스 72" d="M282.012,292.206q0,.976-1.407,1.585c-.459.192-.914.386-1.364.577a5.826,5.826,0,0,0-1.206.709,1.688,1.688,0,0,1,.741-.176,2.25,2.25,0,0,1,.837.167c.284.109.576.224.882.342a.567.567,0,0,0,.392-.19l.406-.4.055.045q0,.231-.522.681a1.868,1.868,0,0,1-1.218.528,2.434,2.434,0,0,1-1.075-.4,1.2,1.2,0,0,0-.531-.2.6.6,0,0,0-.471.3c-.145.2-.227.3-.249.3a.082.082,0,0,1-.068-.028.1.1,0,0,1-.021-.039,1.368,1.368,0,0,1,.044-.177,2.185,2.185,0,0,1,.2-.411,1.872,1.872,0,0,1,.409-.455c.119-.1.461-.348,1.03-.734a7.356,7.356,0,0,0,1.507-1.255,1.913,1.913,0,0,0,.521-1.245c0-.348-.18-.52-.543-.52a1.958,1.958,0,0,0-1.141.465,2.282,2.282,0,0,0-.582.594,1.027,1.027,0,0,0-.205.526c0,.2.081.3.244.3a.779.779,0,0,0,.564-.279l.522-.63c.051,0,.077.037.077.11,0,.1-.12.284-.353.543a1.169,1.169,0,0,1-.833.466.411.411,0,0,1-.464-.466,1.646,1.646,0,0,1,.675-1.175,2.476,2.476,0,0,1,1.674-.664,1.609,1.609,0,0,1,1.068.338,1.078,1.078,0,0,1,.4.869" transform="translate(-41.322 -5.329)" fill="#0060af"/>
    <path id="패스_73" data-name="패스 73" d="M293.918,292.171a2.841,2.841,0,0,1-.381,1.305,6.74,6.74,0,0,1-1.136,1.493,2.939,2.939,0,0,1-1.917,1.105,1.062,1.062,0,0,1-.849-.453,1.692,1.692,0,0,1-.359-1.083,3.573,3.573,0,0,1,1.651-2.665,3.247,3.247,0,0,1,1.929-.874,1.013,1.013,0,0,1,.776.309,1.224,1.224,0,0,1,.287.863m-.485-.276q0-.664-.556-.663a1.1,1.1,0,0,0-.677.288,3.282,3.282,0,0,0-.685.828,20.241,20.241,0,0,0-1.069,1.941,3.234,3.234,0,0,0-.359,1.068.44.44,0,0,0,.5.5q.642,0,1.473-1.061a7.893,7.893,0,0,0,1.063-1.77,3.16,3.16,0,0,0,.313-1.127" transform="translate(-48.82 -5.329)" fill="#0060af"/>
    <path id="패스_74" data-name="패스 74" d="M305.147,292.171a2.836,2.836,0,0,1-.381,1.305,6.782,6.782,0,0,1-1.136,1.493,2.937,2.937,0,0,1-1.919,1.105,1.057,1.057,0,0,1-.845-.453,1.687,1.687,0,0,1-.362-1.083,3.579,3.579,0,0,1,1.652-2.665,3.248,3.248,0,0,1,1.929-.874,1.013,1.013,0,0,1,.775.309,1.223,1.223,0,0,1,.287.863m-.487-.276c0-.443-.184-.663-.556-.663a1.09,1.09,0,0,0-.674.288,3.315,3.315,0,0,0-.689.828,19.577,19.577,0,0,0-1.066,1.941,3.21,3.21,0,0,0-.361,1.068.44.44,0,0,0,.5.5q.642,0,1.473-1.061a7.993,7.993,0,0,0,1.064-1.77,3.146,3.146,0,0,0,.311-1.127" transform="translate(-55.793 -5.329)" fill="#0060af"/>
    <path id="패스_75" data-name="패스 75" d="M315.7,292.206q0,.976-1.407,1.585c-.458.192-.913.386-1.362.577a5.8,5.8,0,0,0-1.207.709,1.693,1.693,0,0,1,.74-.176,2.243,2.243,0,0,1,.838.167c.285.109.578.224.881.342a.575.575,0,0,0,.394-.19l.4-.4.056.045c0,.154-.176.38-.523.681a1.869,1.869,0,0,1-1.218.528,2.433,2.433,0,0,1-1.074-.4,1.208,1.208,0,0,0-.533-.2.6.6,0,0,0-.471.3,1.255,1.255,0,0,1-.25.3.085.085,0,0,1-.067-.028.076.076,0,0,1-.02-.039,1.536,1.536,0,0,1,.044-.177,2.239,2.239,0,0,1,.2-.411,1.829,1.829,0,0,1,.41-.455q.176-.156,1.029-.734a7.253,7.253,0,0,0,1.507-1.255,1.913,1.913,0,0,0,.521-1.245c0-.348-.179-.52-.542-.52a1.952,1.952,0,0,0-1.142.465,2.323,2.323,0,0,0-.583.594,1.047,1.047,0,0,0-.2.526c0,.2.082.3.243.3a.781.781,0,0,0,.565-.279c.17-.206.343-.417.52-.63.053,0,.079.037.079.11,0,.1-.119.284-.356.543a1.163,1.163,0,0,1-.831.466.411.411,0,0,1-.466-.466,1.644,1.644,0,0,1,.677-1.175A2.469,2.469,0,0,1,314.23,291a1.614,1.614,0,0,1,1.07.338,1.083,1.083,0,0,1,.4.869" transform="translate(-62.249 -5.329)" fill="#0060af"/>
    <path id="패스_76" data-name="패스 76" d="M281.734,440.851l-1.532,4.206h2.489s.191-.525.27-.736h4.84l1.3-3.469Z" transform="translate(-43.35 -99.208)" fill="#fff"/>
    <path id="패스_77" data-name="패스 77" d="M305.991,440.751h-4.286a3.379,3.379,0,0,0-3.064,1.987,1.638,1.638,0,0,0,.157,1.534,1.987,1.987,0,0,0,1.675.76h5.3l.72-1.982h-5.277c-.208,0-.022-.36.341-.36h5.066l.707-1.94Z" transform="translate(-54.766 -99.149)" fill="#fff"/>
    <path id="패스_78" data-name="패스 78" d="M283.281,445.236h-1.537l1.206-3.313h6.421l-.385,1.059H284.1l-.178.488h4.841l-.374,1.03H283.55Z" transform="translate(-44.259 -99.835)" fill="#0060af"/>
    <path id="패스_79" data-name="패스 79" d="M301.1,445.216c-1.118,0-1.753-.756-1.412-1.693a2.946,2.946,0,0,1,2.645-1.692h4.985l-.38,1.043h-4.755a1.1,1.1,0,0,0-.982.627c-.125.347.111.628.524.628h4.756l-.4,1.086Z" transform="translate(-55.379 -99.781)" fill="#0060af"/>
    <path id="패스_80" data-name="패스 80" d="M253.994,427.393l-1.415,3.893,1.131,1.48h4.415a2.947,2.947,0,0,0,2.743-1.669l.732-2.012a1.533,1.533,0,0,0-.169-1.426,2.054,2.054,0,0,0-1.735-.784h-4.1l-1.415,0Zm4.632,1.817c-.166.454-.373,1.026-.388,1.065a.312.312,0,0,1-.2.086h-2.106c.2-.547.289-.8.419-1.151Z" transform="translate(-26.136 -91.037)" fill="#fff"/>
    <path id="패스_81" data-name="패스 81" d="M314.121,427.046h-4.745a2.939,2.939,0,0,0-2.737,1.671l-.692,1.893a1.579,1.579,0,0,0,.178,1.466,2.031,2.031,0,0,0,1.711.79h4.18l1.633-1.032,1.13-3.1h-.142c.061-.173.612-1.693.612-1.693Z" transform="translate(-59.364 -91.137)" fill="#fff"/>
    <path id="패스_82" data-name="패스 82" d="M332.288,427.046h-2.015s-1.217,3.343-1.238,3.4a.324.324,0,0,1-.2.084h-1.891c.245-.676,1.267-3.485,1.267-3.485h-3.093l-1.326,3.646a1.575,1.575,0,0,0,.178,1.458,2.028,2.028,0,0,0,1.714.79h3.451a3,3,0,0,0,2.754-1.707l1.524-4.187Z" transform="translate(-70.519 -91.137)" fill="#fff"/>
    <path id="패스_83" data-name="패스 83" d="M296.745,427.046h-6.517L288.6,431.51l1.263,1.287h5.984l.842-2.31h-.072c.042-.112.648-1.786.648-1.786h0c.061-.165.6-1.654.6-1.654Z" transform="translate(-48.605 -91.137)" fill="#fff"/>
    <path id="패스_84" data-name="패스 84" d="M273.807,426.787a3.015,3.015,0,0,0-2.758,1.706l-1.522,4.187h3.021l.653-1.8h1.866c-.13.358-.653,1.8-.653,1.8h3.12l1.326-3.645a1.581,1.581,0,0,0-.176-1.459,2.036,2.036,0,0,0-1.716-.789Z" transform="translate(-36.714 -90.986)" fill="#fff"/>
    <path id="패스_85" data-name="패스 85" d="M260.948,428.779H255.99l-1.27,3.484.633.827h4.023a2.2,2.2,0,0,0,2-1.15l.732-2.012c.231-.634-.29-1.149-1.162-1.149m-.726,2.911a1.03,1.03,0,0,1-.929.575H256.06l.992-2.732h3.235c.4,0,.625.258.51.576Z" transform="translate(-27.428 -92.15)" fill="#0060af"/>
    <path id="패스_86" data-name="패스 86" d="M314.76,430.643h-3.995l-.284.78h2.675l-.365,1.006H309.7c-.4,0-.63-.249-.514-.567l.575-1.58a1.03,1.03,0,0,1,.928-.577h4.266l.274-.752h-4.745a2.192,2.192,0,0,0-2,1.15L307.8,432c-.23.634.274,1.2,1.147,1.2H312.9l1.212-.763Z" transform="translate(-60.44 -92.252)" fill="#0060af"/>
    <path id="패스_87" data-name="패스 87" d="M332.26,432.078a2.235,2.235,0,0,1-2.012,1.186H326.8c-.874,0-1.381-.551-1.148-1.186l1.138-3.125h1.41l-1.059,2.908c-.113.318.115.575.51.575h2.3a1.029,1.029,0,0,0,.928-.575l1.057-2.908H333.4Z" transform="translate(-71.573 -92.252)" fill="#0060af"/>
    <path id="패스_88" data-name="패스 88" d="M292.064,428.953h5.966l-.262.716h-4.554l-.341.939h4.553l-.289.789h-4.552l-.36.994h4.623l-.264.729h-5.1l-.681-.691Z" transform="translate(-49.88 -92.252)" fill="#0060af"/>
    <path id="패스_89" data-name="패스 89" d="M278.558,428.689H275.4a2.242,2.242,0,0,0-2.014,1.187L272.245,433h1.338l.653-1.794h3.549L277.131,433h1.438l1.137-3.125c.232-.634-.274-1.187-1.148-1.187m-4.06,1.8.146-.4a1.133,1.133,0,0,1,.953-.65h2.112a.475.475,0,0,1,.483.65l-.145.4Z" transform="translate(-38.34 -92.098)" fill="#0060af"/>
    <path id="패스_90" data-name="패스 90" d="M269.958,310.712c5.692,0,11.382,4.087,17.071,4.087-.751,14.258.6,22.255-17.071,36.818-17.669-14.563-16.322-22.56-17.072-36.818,5.689,0,11.381-4.087,17.072-4.087" transform="translate(-25.183 -16.854)" fill="#bdc2c9"/>
    <path id="패스_91" data-name="패스 91" d="M273.927,314.1c5.823,0,11.648,3.729,17.473,3.729-.769,13.017.611,20.315-17.473,33.611-18.084-13.3-16.705-20.593-17.473-33.611,5.824,0,11.648-3.729,17.473-3.729" transform="translate(-29.164 -18.832)" fill="#fff"/>
    <path id="패스_92" data-name="패스 92" d="M274.893,315.735c5.691,0,11.382,3.593,17.076,3.593-.75,12.543.6,19.575-17.076,32.387-17.674-12.812-16.325-19.844-17.075-32.387,5.691,0,11.383-3.593,17.075-3.593" transform="translate(-30.13 -19.79)" fill="#79c4ee"/>
    <path id="패스_93" data-name="패스 93" d="M267.5,329.32c.275,5.515,3.8,8.561,7.506,11.834,3.24,2.864,4.015,5.923,4.761,9.076.844-3.107,1.078-6.382-.183-8.642,3.937,2.383,8.755,1.779,12.591-.511-1.971.1-4.723.1-6.362-.672,7.8-1.6,8.319-7.33,10.859-12.776,2.285-4.911,7.257-4.705,10.694-4.613-5.432-2.748-11.706-2.343-15.108,2.649,1.718-3.574,4.584-4.285,8.026-5.476,4.194-1.453,6.531-8.042,5.735-12.854-1.944,5.442-4.19,7.572-9.041,9.507a4.311,4.311,0,0,0,.211-5.6,6.169,6.169,0,0,1-2.454,4.487c-3.126,2.513-3.779,3.5-4.044,7.717-1.188-6.941-9.89-9.142-15.551-6.293.343-1.542-1.193-3.787-2.641-4.742a9.045,9.045,0,0,1-1.8,6.9,15.13,15.13,0,0,0-3.2,10m20.5,2.956a7.1,7.1,0,0,1-10.9-1.177,5.482,5.482,0,0,1-.336-5.789,5.181,5.181,0,0,1,4.453-2.455,4,4,0,0,1,4.079,5.572c-1.266,3.019-5.019,2.941-7.026.894.482,3.3,4.942,6.037,9.732,2.956" transform="translate(-38.945 -16.622)" fill="#1a1818"/>
    <path id="패스_94" data-name="패스 94" d="M247.977,328.291c-.239-6.067-4.508-6.58-7.982-7.99-4.458-1.814-6.589-8.154-5.79-12.966,1.943,5.442,4.187,7.571,9.036,9.508a4.313,4.313,0,0,1-.206-5.6,6.138,6.138,0,0,0,2.455,4.487c3.12,2.513,5.165,4.675,2.486,12.559" transform="translate(-13.667 -15.847)" fill="#1a1818"/>
    <path id="패스_95" data-name="패스 95" d="M334.488,323.543c2.918-1.222,5.079-5.574,5.544-9.053a11.658,11.658,0,0,1-6.233,6.31c-4.6,1.8-5.933,4.161-7.122,8.253,1.633-3.761,4.894-4.291,7.812-5.511" transform="translate(-72.652 -20.588)" fill="#f77e0b"/>
    <path id="패스_96" data-name="패스 96" d="M241.406,323.543c-2.918-1.222-5.081-5.574-5.544-9.053a11.662,11.662,0,0,0,6.229,6.31c4.6,1.8,5.936,4.161,7.124,8.253-1.633-3.761-4.894-4.291-7.81-5.511" transform="translate(-14.98 -20.588)" fill="#f77e0b"/>
    <path id="패스_97" data-name="패스 97" d="M329.79,325.508a5.373,5.373,0,0,0,2.065-4.7,6.063,6.063,0,0,1-2.577,3.84c-2.328,1.687-2.729,2.915-2.79,4.8.362-1.851,1.835-2.847,3.3-3.946" transform="translate(-71.977 -24.402)" fill="#f77e0b"/>
    <path id="패스_98" data-name="패스 98" d="M257.276,325.508a5.383,5.383,0,0,1-2.07-4.7,6.082,6.082,0,0,0,2.579,3.84c2.329,1.687,2.733,2.915,2.791,4.8-.363-1.851-1.837-2.847-3.3-3.946" transform="translate(-27.653 -24.402)" fill="#f77e0b"/>
    <path id="패스_99" data-name="패스 99" d="M291.517,334.68c-.392-7.432-9.393-10.46-15.95-6.782a5.1,5.1,0,0,0-1.008-4.535c.341,2.408-.273,3.807-2.293,6.637a13.23,13.23,0,0,0-2.13,10.792c1.023,4.142,4.516,6.97,6.083,8.271a12.436,12.436,0,0,1,4.791,7.4c.161-4.343-.837-6.1-3.069-8.428a12.993,12.993,0,0,0,12.656,3.04c-4.213.129-6.592-1.383-7.327-2.144,2.094.749,5.7-.342,7.55-1.664,3.373-2.518,4.773-7.132,5.967-10.016a8.458,8.458,0,0,1,8.973-5.355,10.451,10.451,0,0,0-12.935,5.763c-2.221,4.673-4.19,6.224-7.2,6.777a8.607,8.607,0,0,1-8.145-3.555c.329,1.975,3.182,5.8,8.253,5.716-5.47,1.081-8.954-3.305-9.861-5.923-1.44-5.012,1.178-9.784,6.589-10.526a6.6,6.6,0,0,0-3.628,2.716,6.014,6.014,0,0,1,4.909-1.357,4.77,4.77,0,0,1,4.017,4.958,4.472,4.472,0,0,1-6.843,3.682c.817,1.525,3.73,2.482,6.031,1.74a6.9,6.9,0,0,0,4.571-7.2" transform="translate(-38.474 -27.157)" fill="#f77e0b"/>
  </g>
</svg>
